<svg xmlns="http://www.w3.org/2000/svg" xmlns:xlink="http://www.w3.org/1999/xlink" xmlns:lucid="lucid" width="937.67" height="910.59"><g transform="translate(529.6755729166666 -660)" lucid:page-tab-id="0_0"><path d="M-520 801.05h207v47.66h-207z" fill="#f2f2f2"/><path d="M-520 848.7h207v47.68h-207zM-520 896.38h207v47.67h-207zM-520 944.05h207v47.66h-207z" fill="#f2f2f2"/><path d="M-520 991.7h207v47.68h-207zM-520 1039.38h207v47.67h-207z" fill="#f2f2f2"/><path d="M-520 1087.05h207v47.66h-207z" fill="#f2f2f2"/><path d="M-520 801.05v47.66M-313 801.05v47.66M-520 801.05h207M-520 848.7v47.68M-313 848.7v47.68M-520 848.7h207M-520 896.38v47.67M-313 896.38v47.67M-520 896.38h207M-520 944.05v47.66M-313 944.05v47.66M-520 944.05h207M-520 991.7v47.68M-313 991.7v47.68M-520 991.7h207M-520 1039.38v47.67M-313 1039.38v47.67M-520 1039.38h207M-520 1087.05v47.66M-313 1087.05v47.66M-520 1087.05h207M-520 1134.7h207" stroke="#000" stroke-width="2" fill="none"/><use xlink:href="#a" transform="matrix(1,0,0,1,-515,806.0466303066046) translate(38.761501736111114 27.08376736111111)"/><use xlink:href="#b" transform="matrix(1,0,0,1,-515,806.0466303066046) translate(70.85785590277777 27.08376736111111)"/><use xlink:href="#c" transform="matrix(1,0,0,1,-515,806.0466303066046) translate(91.126953125 27.08376736111111)"/><use xlink:href="#a" transform="matrix(1,0,0,1,-515,853.7132969732712) translate(33.63997395833334 27.08376736111111)"/><use xlink:href="#d" transform="matrix(1,0,0,1,-515,853.7132969732712) translate(65.736328125 27.08376736111111)"/><use xlink:href="#e" transform="matrix(1,0,0,1,-515,853.7132969732712) translate(81.02495659722223 27.08376736111111)"/><use xlink:href="#a" transform="matrix(1,0,0,1,-515,901.379963639938) translate(33.23307291666667 27.08376736111111)"/><use xlink:href="#f" transform="matrix(1,0,0,1,-515,901.379963639938) translate(65.32942708333334 27.08376736111111)"/><use xlink:href="#g" transform="matrix(1,0,0,1,-515,901.379963639938) translate(85.13194444444444 27.08376736111111)"/><use xlink:href="#h" transform="matrix(1,0,0,1,-515,949.0466303066046) translate(75.58875868055556 27.08376736111111)"/><use xlink:href="#i" transform="matrix(1,0,0,1,-515,949.0466303066046) translate(107.68511284722223 27.08376736111111)"/><use xlink:href="#a" transform="matrix(1,0,0,1,-515,996.7132969732713) translate(75.27408854166667 27.08376736111111)"/><use xlink:href="#j" transform="matrix(1,0,0,1,-515,996.7132969732713) translate(107.37044270833334 27.08376736111111)"/><use xlink:href="#a" transform="matrix(1,0,0,1,-515,1044.3799636399378) translate(75.697265625 27.08376736111111)"/><use xlink:href="#k" transform="matrix(1,0,0,1,-515,1044.3799636399378) translate(107.79361979166666 27.08376736111111)"/><use xlink:href="#l" transform="matrix(1,0,0,1,-515,1092.0466303066046) translate(87.38888888888889 27.08376736111111)"/><path d="M-520 1235.93h207v47.66h-207zM-520 1283.6h207v47.66h-207zM-520 1331.26h207v47.67h-207zM-520 1378.93h207v47.66h-207zM-520 1426.6h207v47.66h-207zM-520 1474.26h207v47.67h-207zM-520 1521.93h207v47.66h-207z" fill="#f2f2f2"/><path d="M-520 1235.93v47.66M-313 1235.93v47.66M-520 1235.93h207M-520 1283.6v47.66M-313 1283.6v47.66M-520 1283.6h207M-520 1331.26v47.67M-313 1331.26v47.67M-520 1331.26h207M-520 1378.93v47.66M-313 1378.93v47.66M-520 1378.93h207M-520 1426.6v47.66M-313 1426.6v47.66M-520 1426.6h207M-520 1474.26v47.67M-313 1474.26v47.67M-520 1474.26h207M-520 1521.93v47.66M-313 1521.93v47.66M-520 1521.93h207M-520 1569.6h207" stroke="#000" stroke-width="2" fill="none"/><use xlink:href="#a" transform="matrix(1,0,0,1,-515,1240.9272171469422) translate(38.761501736111114 27.08376736111111)"/><use xlink:href="#b" transform="matrix(1,0,0,1,-515,1240.9272171469422) translate(70.85785590277777 27.08376736111111)"/><use xlink:href="#c" transform="matrix(1,0,0,1,-515,1240.9272171469422) translate(91.126953125 27.08376736111111)"/><use xlink:href="#a" transform="matrix(1,0,0,1,-515,1288.593883813609) translate(33.63997395833334 27.08376736111111)"/><use xlink:href="#d" transform="matrix(1,0,0,1,-515,1288.593883813609) translate(65.736328125 27.08376736111111)"/><use xlink:href="#e" transform="matrix(1,0,0,1,-515,1288.593883813609) translate(81.02495659722223 27.08376736111111)"/><use xlink:href="#a" transform="matrix(1,0,0,1,-515,1336.2605504802755) translate(33.23307291666667 27.08376736111111)"/><use xlink:href="#f" transform="matrix(1,0,0,1,-515,1336.2605504802755) translate(65.32942708333334 27.08376736111111)"/><use xlink:href="#g" transform="matrix(1,0,0,1,-515,1336.2605504802755) translate(85.13194444444444 27.08376736111111)"/><use xlink:href="#a" transform="matrix(1,0,0,1,-515,1383.9272171469422) translate(75.58875868055556 27.08376736111111)"/><use xlink:href="#m" transform="matrix(1,0,0,1,-515,1383.9272171469422) translate(107.68511284722223 27.08376736111111)"/><use xlink:href="#a" transform="matrix(1,0,0,1,-515,1431.593883813609) translate(75.27408854166667 27.08376736111111)"/><use xlink:href="#j" transform="matrix(1,0,0,1,-515,1431.593883813609) translate(107.37044270833334 27.08376736111111)"/><use xlink:href="#a" transform="matrix(1,0,0,1,-515,1479.2605504802755) translate(75.697265625 27.08376736111111)"/><use xlink:href="#k" transform="matrix(1,0,0,1,-515,1479.2605504802755) translate(107.79361979166666 27.08376736111111)"/><use xlink:href="#l" transform="matrix(1,0,0,1,-515,1526.9272171469422) translate(87.38888888888889 27.08376736111111)"/><path d="M-149 801.05H58v47.66h-207z" fill="#f2f2f2"/><path d="M-149 848.7H58v47.68h-207zM-149 896.38H58v47.67h-207z" fill="#f2f2f2"/><path d="M-149 801.05v47.66M58 801.05v47.66M-149 801.05H58M-149 848.7v47.68M58 848.7v47.68M-149 848.7H58M-149 896.38v47.67M58 896.38v47.67M-149 896.38H58M-149 944.05H58" stroke="#000" stroke-width="2" fill="none"/><use xlink:href="#n" transform="matrix(1,0,0,1,-144.0043477380329,806.0466303066046) translate(41.60980902777778 27.08376736111111)"/><use xlink:href="#o" transform="matrix(1,0,0,1,-144.0043477380329,806.0466303066046) translate(84.69791666666666 27.08376736111111)"/><use xlink:href="#p" transform="matrix(1,0,0,1,-144.0043477380329,853.7132969732712) translate(70.33159722222223 27.08376736111111)"/><use xlink:href="#q" transform="matrix(1,0,0,1,-144.0043477380329,901.379963639938) translate(66.48502604166667 27.08376736111111)"/><path d="M-149 1235.93H58v47.66h-207zM-149 1283.6H58v47.66h-207zM-149 1331.26H58v47.67h-207z" fill="#f2f2f2"/><path d="M-149 1235.93v47.66M58 1235.93v47.66M-149 1235.93H58M-149 1283.6v47.66M58 1283.6v47.66M-149 1283.6H58M-149 1331.26v47.67M58 1331.26v47.67M-149 1331.26H58M-149 1378.93H58" stroke="#000" stroke-width="2" fill="none"/><use xlink:href="#n" transform="matrix(1,0,0,1,-144.0043477380329,1240.927217146942) translate(41.60980902777778 27.08376736111111)"/><use xlink:href="#o" transform="matrix(1,0,0,1,-144.0043477380329,1240.927217146942) translate(84.69791666666666 27.08376736111111)"/><use xlink:href="#p" transform="matrix(1,0,0,1,-144.0043477380329,1288.5938838136087) translate(70.33159722222223 27.08376736111111)"/><use xlink:href="#q" transform="matrix(1,0,0,1,-144.0043477380329,1336.2605504802752) translate(66.48502604166667 27.08376736111111)"/><path d="M200 801.05h207v47.66H200z" fill="#f2f2f2"/><path d="M200 848.7h207v47.68H200z" fill="#f2f2f2"/><path d="M200 801.05v47.66M407 801.05v47.66M200 801.05h207M200 848.7v47.68M407 848.7v47.68M200 848.7h207M200 896.38h207" stroke="#000" stroke-width="2" fill="none"/><use xlink:href="#n" transform="matrix(1,0,0,1,204.99870889061594,806.0466303066046) translate(53.59982638888889 27.08376736111111)"/><use xlink:href="#r" transform="matrix(1,0,0,1,204.99870889061594,806.0466303066046) translate(96.68793402777777 27.08376736111111)"/><use xlink:href="#s" transform="matrix(1,0,0,1,204.99870889061594,853.7132969732712) translate(76.22894965277777 27.08376736111111)"/><path d="M-529.68 666a6 6 0 0 1 6-6h214.36a6 6 0 0 1 6 6v24.9a6 6 0 0 1-6 6h-214.36a6 6 0 0 1-6-6z" fill="none"/><use xlink:href="#t" transform="matrix(1,0,0,1,-524.6755729166666,665) translate(0 21.58376736111111)"/><use xlink:href="#u" transform="matrix(1,0,0,1,-524.6755729166666,665) translate(43.088107638888886 21.58376736111111)"/><use xlink:href="#v" transform="matrix(1,0,0,1,-524.6755729166666,665) translate(159.20138888888886 21.58376736111111)"/><path d="M-132.1 666a6 6 0 0 1 6-6H35.1a6 6 0 0 1 6 6v24.9a6 6 0 0 1-6 6H-126.1a6 6 0 0 1-6-6z" fill="none"/><use xlink:href="#w" transform="matrix(1,0,0,1,-127.09029391858843,665) translate(0 21.58376736111111)"/><use xlink:href="#x" transform="matrix(1,0,0,1,-127.09029391858843,665) translate(62.93402777777778 21.58376736111111)"/><use xlink:href="#v" transform="matrix(1,0,0,1,-127.09029391858843,665) translate(106.02213541666666 21.58376736111111)"/><path d="M211.77 666a6 6 0 0 1 6-6h171.46a6 6 0 0 1 6 6v24.9a6 6 0 0 1-6 6H217.77a6 6 0 0 1-6-6z" fill="none"/><use xlink:href="#y" transform="matrix(1,0,0,1,216.76953354339378,665) translate(0 21.58376736111111)"/><use xlink:href="#x" transform="matrix(1,0,0,1,216.76953354339378,665) translate(73.22048611111111 21.58376736111111)"/><use xlink:href="#v" transform="matrix(1,0,0,1,216.76953354339378,665) translate(116.30859375 21.58376736111111)"/><path d="M-471.46 746a6 6 0 0 1 6-6h97.92a6 6 0 0 1 6 6v24.9a6 6 0 0 1-6 6h-97.92a6 6 0 0 1-6-6z" fill="none"/><g><use xlink:href="#z" transform="matrix(1,0,0,1,-466.4615972222222,745) translate(0 21.58376736111111)"/><use xlink:href="#A" transform="matrix(1,0,0,1,-466.4615972222222,745) translate(90.87456597222221 21.58376736111111)"/></g><path d="M-473.72 1185.4a6 6 0 0 1 6-6h102.44a6 6 0 0 1 6 6v24.9a6 6 0 0 1-6 6h-102.44a6 6 0 0 1-6-6z" fill="none"/><g><use xlink:href="#z" transform="matrix(1,0,0,1,-468.7185416666667,1184.3896753695763) translate(0 21.58376736111111)"/><use xlink:href="#B" transform="matrix(1,0,0,1,-468.7185416666667,1184.3896753695763) translate(90.87456597222221 21.58376736111111)"/></g><path d="M-311.5 970.66l4.04-.1 4.12-.24 3.77-.4 3.48-.5 3.24-.63 3-.7 2.84-.8 2.67-.87 2.53-.94 2.4-1.02 2.3-1.1 2.22-1.14 2.14-1.24 2.07-1.3 2.02-1.4 1.97-1.5 1.92-1.6 1.9-1.7 1.88-1.85 1.87-2 1.86-2.15 1.87-2.36 1.88-2.6 1.92-2.88 1.95-3.23 2.02-3.68 2.12-4.27 2.25-5.08 2.5-6.3 2.96-8.57 4.77-16 9.53-33.34 2.88-8.3 2.4-6.04 2.14-4.84 2-4.04 1.9-3.47 1.84-3.02 1.8-2.7 1.74-2.4 1.73-2.2 1.72-2 1.72-1.82 1.73-1.7 1.74-1.56 1.76-1.46 1.8-1.35 1.8-1.28 1.9-1.2 1.9-1.1 2-1.04 2.07-.98 2.15-.9 2.26-.84 2.37-.77 2.5-.7 2.67-.63 2.85-.55 3.06-.45.7-.07" stroke="#3a414a" stroke-linejoin="round" fill="none"/><path d="M-311.47 971.13h-.53v-.94l.5-.02z" stroke="#3a414a" stroke-width=".05" fill="#3a414a"/><path d="M-151.62 801.45l-14.15 4.97-.22-9.27z" stroke="#3a414a" fill="#3a414a"/><path d="M-311.5 1016.03l.9.07 1.4.15 1.37.2 1.35.28 1.35.32 1.34.4 1.36.43 1.36.52 1.36.58 1.4.66 1.4.75 1.44.84 1.5.95 1.52 1.07 1.58 1.22 1.65 1.37 1.74 1.58 1.83 1.8 1.94 2.1 2.08 2.44 2.24 2.86 2.44 3.42 2.72 4.14 3.06 5.14 3.55 6.55 4.28 8.8 5.63 12.9 10.1 26.27 22.8 61.38 6.15 14.1 4.77 9.8 4.03 7.42 3.52 5.9 3.15 4.82 2.88 4 2.66 3.4 2.48 2.9 2.33 2.53 2.22 2.2 2.1 1.92 2.03 1.7 1.96 1.5 1.9 1.33 1.83 1.2 1.8 1.04 1.77.94 1.75.84 1.74.74 1.72.65 1.72.57 1.73.5 1.73.4 1.54.3" stroke="#3a414a" stroke-linejoin="round" fill="none"/><path d="M-311.45 1015.56l-.07.95-.48-.02v-.96z" stroke="#3a414a" stroke-width=".05" fill="#3a414a"/><path d="M-150.62 1235.93l-14.25 4.68-.03-9.26z" stroke="#3a414a" fill="#3a414a"/><path d="M-311.5 1404l.82-.03 1.28-.08 1.25-.14 1.23-.18 1.2-.23 1.2-.28 1.2-.34 1.18-.38 1.18-.44 1.2-.5 1.18-.55 1.2-.63 1.23-.7 1.24-.8 1.25-.87 1.3-1 1.34-1.1 1.36-1.23 1.43-1.4 1.47-1.6 1.56-1.8 1.63-2.05 1.72-2.37 1.82-2.75 1.95-3.2 2.08-3.8 2.25-4.55 2.44-5.5 2.67-6.76 2.94-8.48 3.28-10.9 3.7-14.48 4.24-20.06 5-29.8 6.32-51.07 26.9-300.15 4.82-28.82 4.08-19.3 3.54-13.87 3.14-10.4 2.8-8.1 2.55-6.42 2.32-5.22 2.13-4.3 1.97-3.6 1.84-3.03 1.72-2.6 1.62-2.22 1.54-1.93 1.46-1.7 1.4-1.48 1.34-1.33 1.3-1.16 1.24-1.03 1.2-.92 1.2-.83 1.16-.73 1.14-.67 1.13-.6 1.12-.52 1.1-.45 1.1-.4.12-.05" stroke="#3a414a" stroke-linejoin="round" fill="none"/><path d="M-311.47 1404.46h-.53v-.93l.5-.02z" stroke="#3a414a" stroke-width=".05" fill="#3a414a"/><path d="M-151.62 801.48l-14.05 5.24-.4-9.26z" stroke="#3a414a" fill="#3a414a"/><path d="M59.5 1260l1.2-.04 1.63-.1 1.58-.16 1.54-.23 1.5-.3 1.46-.33 1.44-.4 1.42-.46 1.4-.53 1.4-.58 1.4-.65 1.38-.73 1.38-.8 1.4-.9 1.42-.98 1.43-1.1 1.45-1.2 1.5-1.33 1.5-1.5 1.57-1.66 1.6-1.87 1.66-2.1 1.73-2.4 1.8-2.7 1.9-3.14 1.98-3.62 2.1-4.24 2.24-5.02 2.38-6.03 2.56-7.35 2.75-9.15 3-11.68 3.27-15.46 3.62-21.6 4.16-33.53 6.67-85.3 8.27-112.9 3.67-29.54 3.1-18.46 2.72-12.9 2.44-9.57 2.22-7.4 2.04-5.86 1.88-4.75 1.75-3.93 1.63-3.3 1.53-2.78 1.44-2.4L166 815l1.32-1.8 1.25-1.6 1.2-1.38 1.17-1.24 1.13-1.1 1.1-1 1.06-.88 1.05-.8 1.03-.7 1.03-.66 1-.58 1-.53 1-.46 1-.42 1-.37.5-.16" stroke="#3a414a" stroke-linejoin="round" fill="none"/><path d="M59.52 1260.46H59v-.93l.5-.02z" stroke="#3a414a" stroke-width=".05" fill="#3a414a"/><path d="M197.38 801.07l-14.2 4.85-.13-9.27z" stroke="#3a414a" fill="#3a414a"/><path d="M59.5 825.32l10.84-.22 9.3-.58 7.94-.83 7.06-1.05 6.57-1.25 6.5-1.52 7.15-2 35.45-11.38 6.5-1.52 6.55-1.25 7.06-1.04 7.95-.85 4.28-.26" stroke="#3a414a" stroke-linejoin="round" fill="none"/><path d="M59.52 825.8H59v-.94h.5z" stroke="#3a414a" stroke-width=".05" fill="#3a414a"/><path d="M197.38 801.1l-14.1 5.1-.3-9.26z" stroke="#3a414a" fill="#3a414a"/><path d="M269.28 746a6 6 0 0 1 6-6h56.43a6 6 0 0 1 6 6v24.9a6 6 0 0 1-6 6H275.3a6 6 0 0 1-6-6z" fill="none"/><g><use xlink:href="#t" transform="matrix(1,0,0,1,274.28363944617155,745) translate(0 21.58376736111111)"/><use xlink:href="#C" transform="matrix(1,0,0,1,274.28363944617155,745) translate(43.088107638888886 21.58376736111111)"/></g><path d="M-111.8 746a6 6 0 0 1 6-6H13.55a6 6 0 0 1 6 6v24.9a6 6 0 0 1-6 6h-119.37a6 6 0 0 1-6-6z" fill="none"/><g><use xlink:href="#w" transform="matrix(1,0,0,1,-106.8094649991365,745) translate(0 21.58376736111111)"/><use xlink:href="#x" transform="matrix(1,0,0,1,-106.8094649991365,745) translate(62.93402777777778 21.58376736111111)"/><use xlink:href="#C" transform="matrix(1,0,0,1,-106.8094649991365,745) translate(106.02213541666666 21.58376736111111)"/></g><path d="M-113.64 1185.4a6 6 0 0 1 6-6H16.63a6 6 0 0 1 6 6v24.9a6 6 0 0 1-6 6h-124.27a6 6 0 0 1-6-6z" fill="none"/><g><use xlink:href="#w" transform="matrix(1,0,0,1,-108.63868801581066,1184.3896753695763) translate(0 21.58376736111111)"/><use xlink:href="#x" transform="matrix(1,0,0,1,-108.63868801581066,1184.3896753695763) translate(62.93402777777778 21.58376736111111)"/><use xlink:href="#D" transform="matrix(1,0,0,1,-108.63868801581066,1184.3896753695763) translate(106.02213541666666 21.58376736111111)"/></g><defs><path d="M180 0v-1490h901v168H370v510h643v168H370V0H180" id="E"/><path d="M577 24c-279 0-473-224-473-580 0-354 195-576 474-576 218 0 287 134 324 193h14v-551h180V0H922v-173h-20C865-111 790 24 577 24zm27-161c203 0 314-172 314-421 0-247-108-413-314-413-212 0-317 181-317 413 0 235 108 421 317 421" id="F"/><g id="a"><use transform="matrix(0.010850694444444444,0,0,0.010850694444444444,0,0)" xlink:href="#E"/><use transform="matrix(0.010850694444444444,0,0,0.010850694444444444,12.239583333333332,0)" xlink:href="#F"/></g><path d="M646 20c-332 0-524-278-524-764 0-483 194-766 524-766s524 283 524 766c0 485-191 764-524 764zm0-166c218 0 341-220 341-598 0-380-123-601-341-601s-341 222-341 601c0 378 123 598 341 598" id="G"/><use transform="matrix(0.010850694444444444,0,0,0.010850694444444444,0,0)" xlink:href="#G" id="b"/><path d="M218-607c0-325 108-727 258-974h175c-155 315-250 682-250 974 0 265 78 531 250 886H476C306-10 218-315 218-607" id="H"/><path d="M538 24C308 24 148-78 108-271l171-41c32 123 123 178 257 178 156 0 256-77 256-169 0-77-54-128-164-154l-186-44c-203-48-300-148-300-305 0-192 176-326 414-326 230 0 351 112 402 269l-163 42c-31-80-94-158-238-158-133 0-233 69-233 162 0 83 57 129 188 160l169 40c203 48 298 149 298 302 0 196-179 339-441 339" id="I"/><path d="M598-1118v154H368v674c0 100 37 144 132 144 23 0 62-6 92-12L629-6c-37 13-88 20-134 20-193 0-307-107-307-290v-688H20v-154h168v-266h180v266h230" id="J"/><path d="M158 0v-1118h180V0H158zm91-1301c-68 0-125-53-125-119s57-119 125-119c69 0 126 53 126 119s-57 119-126 119" id="K"/><path d="M338-670V0H158v-1118h173l1 207c72-158 192-221 342-221 226 0 378 139 378 422V0H872v-695c0-172-96-275-252-275-161 0-282 109-282 300" id="L"/><path d="M96 279C273-86 346-350 346-607c0-292-95-659-250-974h175c150 246 258 650 258 974 0 297-91 602-258 886H96" id="M"/><g id="c"><use transform="matrix(0.010850694444444444,0,0,0.010850694444444444,0,0)" xlink:href="#H"/><use transform="matrix(0.010850694444444444,0,0,0.010850694444444444,8.10546875,0)" xlink:href="#I"/><use transform="matrix(0.010850694444444444,0,0,0.010850694444444444,19.835069444444443,0)" xlink:href="#J"/><use transform="matrix(0.010850694444444444,0,0,0.010850694444444444,26.888020833333332,0)" xlink:href="#F"/><use transform="matrix(0.010850694444444444,0,0,0.010850694444444444,40.494791666666664,0)" xlink:href="#K"/><use transform="matrix(0.010850694444444444,0,0,0.010850694444444444,45.87673611111111,0)" xlink:href="#L"/><use transform="matrix(0.010850694444444444,0,0,0.010850694444444444,59.006076388888886,0)" xlink:href="#M"/></g><path d="M653-1490V0H466v-1314h-10L96-1047v-204l324-239h233" id="N"/><use transform="matrix(0.010850694444444444,0,0,0.010850694444444444,0,0)" xlink:href="#N" id="d"/><path d="M613 24c-304 0-509-231-509-576 0-350 205-580 509-580 305 0 511 230 511 580 0 345-206 576-511 576zm0-161c226 0 329-195 329-415 0-222-103-419-329-419-223 0-326 196-326 419 0 220 103 415 326 415" id="O"/><path d="M537 14c-226 0-379-139-379-422v-710h180v695c0 172 97 275 253 275 160 0 281-109 281-300v-670h181V0H879v-209C806-46 684 14 537 14" id="P"/><g id="e"><use transform="matrix(0.010850694444444444,0,0,0.010850694444444444,0,0)" xlink:href="#H"/><use transform="matrix(0.010850694444444444,0,0,0.010850694444444444,8.10546875,0)" xlink:href="#I"/><use transform="matrix(0.010850694444444444,0,0,0.010850694444444444,19.835069444444443,0)" xlink:href="#J"/><use transform="matrix(0.010850694444444444,0,0,0.010850694444444444,26.888020833333332,0)" xlink:href="#F"/><use transform="matrix(0.010850694444444444,0,0,0.010850694444444444,40.494791666666664,0)" xlink:href="#O"/><use transform="matrix(0.010850694444444444,0,0,0.010850694444444444,53.81944444444444,0)" xlink:href="#P"/><use transform="matrix(0.010850694444444444,0,0,0.010850694444444444,66.95963541666666,0)" xlink:href="#J"/><use transform="matrix(0.010850694444444444,0,0,0.010850694444444444,74.22960069444443,0)" xlink:href="#M"/></g><path d="M154 0v-137l495-537c165-179 249-281 249-418 0-156-121-253-280-253-170 0-278 110-278 278H158c0-264 200-443 465-443 266 0 455 183 455 416 0 161-73 288-336 568L416-179v12h687V0H154" id="Q"/><use transform="matrix(0.010850694444444444,0,0,0.010850694444444444,0,0)" xlink:href="#Q" id="f"/><path d="M628 24c-324 0-524-230-524-574 0-343 198-582 503-582 237 0 487 146 487 559v75H286c9 234 145 362 343 362 132 0 231-58 273-172l174 48C1024-91 857 24 628 24zM287-650h624c-17-190-120-322-304-322-192 0-309 151-320 322" id="R"/><path d="M158 0v-1118h174v172h12c41-113 157-188 290-188 26 0 70 2 91 3v181c-11-2-60-10-108-10-161 0-279 109-279 260V0H158" id="S"/><g id="g"><use transform="matrix(0.010850694444444444,0,0,0.010850694444444444,0,0)" xlink:href="#H"/><use transform="matrix(0.010850694444444444,0,0,0.010850694444444444,8.10546875,0)" xlink:href="#I"/><use transform="matrix(0.010850694444444444,0,0,0.010850694444444444,19.835069444444443,0)" xlink:href="#J"/><use transform="matrix(0.010850694444444444,0,0,0.010850694444444444,26.888020833333332,0)" xlink:href="#F"/><use transform="matrix(0.010850694444444444,0,0,0.010850694444444444,40.494791666666664,0)" xlink:href="#R"/><use transform="matrix(0.010850694444444444,0,0,0.010850694444444444,53.45052083333333,0)" xlink:href="#S"/><use transform="matrix(0.010850694444444444,0,0,0.010850694444444444,62.16362847222221,0)" xlink:href="#S"/><use transform="matrix(0.010850694444444444,0,0,0.010850694444444444,70.52951388888889,0)" xlink:href="#M"/></g><g id="h"><use transform="matrix(0.010850694444444444,0,0,0.010850694444444444,0,0)" xlink:href="#E"/><use transform="matrix(0.010850694444444444,0,0,0.010850694444444444,12.239583333333332,0)" xlink:href="#F"/></g><path d="M635 20c-292 0-500-160-510-396h192c11 142 145 229 315 229 187 0 323-105 323-260 0-161-125-274-346-274H488v-165h121c174 0 294-100 294-254 0-148-104-245-266-245-152 0-291 85-297 230H157c8-234 222-395 484-395 278 0 448 188 448 400 0 168-95 291-247 336v12c190 31 301 169 301 357 0 244-216 425-508 425" id="T"/><use transform="matrix(0.010850694444444444,0,0,0.010850694444444444,0,0)" xlink:href="#T" id="i"/><path d="M120-303v-155l652-1032h231v1020h202v167h-202V0H821v-303H120zm702-167v-782h-12L323-482v12h499" id="U"/><use transform="matrix(0.010850694444444444,0,0,0.010850694444444444,0,0)" xlink:href="#U" id="j"/><path d="M626 20c-262 0-458-168-468-396h184c12 133 134 229 284 229 180 0 311-137 311-326 0-192-136-335-323-335-92 0-196 33-255 78l-178-22 88-738h784v167H429l-51 435h8c61-51 160-87 263-87 273 0 474 211 474 499 0 286-210 496-497 496" id="V"/><use transform="matrix(0.010850694444444444,0,0,0.010850694444444444,0,0)" xlink:href="#V" id="k"/><path d="M916-63h216v250H916V-63zm0-1399h216v250H916v-250zm0 700h216v250H916v-250" id="W"/><use transform="matrix(0.010850694444444444,0,0,0.010850694444444444,0,0)" xlink:href="#W" id="l"/><use transform="matrix(0.010850694444444444,0,0,0.010850694444444444,0,0)" xlink:href="#T" id="m"/><path d="M338-1490V0H158v-1490h180" id="X"/><g id="n"><use transform="matrix(0.010850694444444444,0,0,0.010850694444444444,0,0)" xlink:href="#E"/><use transform="matrix(0.010850694444444444,0,0,0.010850694444444444,13.118489583333332,0)" xlink:href="#K"/><use transform="matrix(0.010850694444444444,0,0,0.010850694444444444,18.50043402777778,0)" xlink:href="#X"/><use transform="matrix(0.010850694444444444,0,0,0.010850694444444444,23.88237847222222,0)" xlink:href="#R"/></g><path d="M338-670V0H158v-1490h180v566c73-149 190-208 336-208 226 0 379 139 379 422V0H872v-695c0-172-96-275-252-275-161 0-282 109-282 300" id="Y"/><path d="M471 26C259 26 90-98 90-318c0-256 228-303 435-329 202-27 287-16 287-108 0-139-79-219-234-219-161 0-248 86-283 164l-173-57c86-203 278-265 451-265 150 0 419 46 419 395V0H815v-152h-12C765-73 660 26 471 26zm31-159c199 0 310-134 310-271v-155c-30 35-226 55-295 64-131 17-246 59-246 186 0 116 97 176 231 176" id="Z"/><g id="o"><use transform="matrix(0.010850694444444444,0,0,0.010850694444444444,0,0)" xlink:href="#Y"/><use transform="matrix(0.010850694444444444,0,0,0.010850694444444444,13.140190972222221,0)" xlink:href="#Z"/><use transform="matrix(0.010850694444444444,0,0,0.010850694444444444,25.618489583333332,0)" xlink:href="#L"/><use transform="matrix(0.010850694444444444,0,0,0.010850694444444444,38.74782986111111,0)" xlink:href="#F"/><use transform="matrix(0.010850694444444444,0,0,0.010850694444444444,52.35460069444444,0)" xlink:href="#X"/><use transform="matrix(0.010850694444444444,0,0,0.010850694444444444,57.736545138888886,0)" xlink:href="#R"/></g><path d="M611 442c-248 0-391-105-460-228l146-94c47 65 117 165 314 165 178 0 307-82 307-266v-224h-17C863-141 792-18 576-18c-268 0-472-195-472-546 0-346 197-568 476-568 216 0 288 133 326 193h17v-179h175V29c0 289-215 413-487 413zm-5-620c203 0 314-146 314-390 0-237-108-403-314-403-213 0-319 180-319 403 0 230 109 390 319 390" id="aa"/><g id="p"><use transform="matrix(0.010850694444444444,0,0,0.010850694444444444,0,0)" xlink:href="#E"/><use transform="matrix(0.010850694444444444,0,0,0.010850694444444444,13.118489583333332,0)" xlink:href="#X"/><use transform="matrix(0.010850694444444444,0,0,0.010850694444444444,18.50043402777778,0)" xlink:href="#Z"/><use transform="matrix(0.010850694444444444,0,0,0.010850694444444444,30.97873263888889,0)" xlink:href="#aa"/><use transform="matrix(0.010850694444444444,0,0,0.010850694444444444,44.60720486111111,0)" xlink:href="#I"/></g><path d="M784 20c-382 0-662-292-662-764 0-473 280-766 662-766s660 293 660 766c0 472-278 764-660 764zm0-176c266 0 475-207 475-588 0-383-209-590-475-590-268 0-477 208-477 590 0 380 209 588 477 588" id="ab"/><path d="M678-1118v154H420V0H240v-964H20v-154h220v-149c0-194 155-293 318-293 85 0 141 18 168 30l-50 154c-19-6-47-17-97-17-111 0-159 58-159 166v109h258" id="ac"/><g id="q"><use transform="matrix(0.010850694444444444,0,0,0.010850694444444444,0,0)" xlink:href="#ab"/><use transform="matrix(0.010850694444444444,0,0,0.010850694444444444,16.9921875,0)" xlink:href="#ac"/><use transform="matrix(0.010850694444444444,0,0,0.010850694444444444,24.348958333333332,0)" xlink:href="#ac"/><use transform="matrix(0.010850694444444444,0,0,0.010850694444444444,32.07465277777778,0)" xlink:href="#I"/><use transform="matrix(0.010850694444444444,0,0,0.010850694444444444,43.80425347222222,0)" xlink:href="#R"/><use transform="matrix(0.010850694444444444,0,0,0.010850694444444444,56.759982638888886,0)" xlink:href="#J"/></g><path d="M158 418v-1536h174v179h20c37-59 106-193 324-193 279 0 474 222 474 576 0 356-194 580-473 580-213 0-288-135-325-197h-14v591H158zm492-555c209 0 317-186 317-421 0-232-105-413-317-413-206 0-314 166-314 413 0 249 111 421 314 421" id="ad"/><g id="r"><use transform="matrix(0.010850694444444444,0,0,0.010850694444444444,0,0)" xlink:href="#ad"/><use transform="matrix(0.010850694444444444,0,0,0.010850694444444444,13.823784722222221,0)" xlink:href="#Z"/><use transform="matrix(0.010850694444444444,0,0,0.010850694444444444,26.302083333333332,0)" xlink:href="#J"/><use transform="matrix(0.010850694444444444,0,0,0.010850694444444444,33.57204861111111,0)" xlink:href="#Y"/></g><path d="M657 26c-323 0-524-166-541-416h195c15 169 171 246 346 246 202 0 356-106 356-265 5-203-294-238-475-293-239-73-380-191-380-389 0-252 224-419 512-419 294 0 499 171 508 396H992c-17-145-151-228-328-228-193 0-321 102-321 242 0 156 175 211 284 241l149 41c160 44 422 134 422 412 0 244-197 432-541 432" id="ae"/><path d="M126 0v-134l627-806v-11H146v-167h839v143L376-178v11h629V0H126" id="af"/><g id="s"><use transform="matrix(0.010850694444444444,0,0,0.010850694444444444,0,0)" xlink:href="#ae"/><use transform="matrix(0.010850694444444444,0,0,0.010850694444444444,14.2578125,0)" xlink:href="#K"/><use transform="matrix(0.010850694444444444,0,0,0.010850694444444444,19.639756944444443,0)" xlink:href="#af"/><use transform="matrix(0.010850694444444444,0,0,0.010850694444444444,31.586371527777775,0)" xlink:href="#R"/></g><g id="t"><use transform="matrix(0.010850694444444444,0,0,0.010850694444444444,0,0)" xlink:href="#E"/><use transform="matrix(0.010850694444444444,0,0,0.010850694444444444,13.118489583333332,0)" xlink:href="#K"/><use transform="matrix(0.010850694444444444,0,0,0.010850694444444444,18.50043402777778,0)" xlink:href="#X"/><use transform="matrix(0.010850694444444444,0,0,0.010850694444444444,23.88237847222222,0)" xlink:href="#R"/></g><path d="M645 0H180v-1490h484c435 0 692 280 692 742 0 466-257 748-711 748zM370-168h263c363 0 539-218 539-580 0-358-176-574-521-574H370v1154" id="ag"/><path d="M613 24c-304 0-509-231-509-576 0-350 205-580 509-580 216 0 392 114 453 309l-173 49c-33-115-133-197-280-197-223 0-326 196-326 419 0 220 103 415 326 415 150 0 252-85 285-206l172 49C1010-95 832 24 613 24" id="ah"/><g id="u"><use transform="matrix(0.010850694444444444,0,0,0.010850694444444444,0,0)" xlink:href="#ag"/><use transform="matrix(0.010850694444444444,0,0,0.010850694444444444,16.03732638888889,0)" xlink:href="#R"/><use transform="matrix(0.010850694444444444,0,0,0.010850694444444444,28.99305555555556,0)" xlink:href="#I"/><use transform="matrix(0.010850694444444444,0,0,0.010850694444444444,40.72265625,0)" xlink:href="#ah"/><use transform="matrix(0.010850694444444444,0,0,0.010850694444444444,53.41796875,0)" xlink:href="#S"/><use transform="matrix(0.010850694444444444,0,0,0.010850694444444444,62.131076388888886,0)" xlink:href="#K"/><use transform="matrix(0.010850694444444444,0,0,0.010850694444444444,67.51302083333333,0)" xlink:href="#ad"/><use transform="matrix(0.010850694444444444,0,0,0.010850694444444444,81.11979166666666,0)" xlink:href="#J"/><use transform="matrix(0.010850694444444444,0,0,0.010850694444444444,88.17274305555554,0)" xlink:href="#O"/><use transform="matrix(0.010850694444444444,0,0,0.010850694444444444,101.49739583333331,0)" xlink:href="#S"/></g><path d="M98-1322v-168h1126v168H757V0H567v-1322H98" id="ai"/><path d="M677 24c-213 0-288-135-325-197h-20V0H158v-1490h180v551h14c37-59 106-193 324-193 279 0 474 222 474 576 0 356-194 580-473 580zm-27-161c209 0 317-186 317-421 0-232-105-413-317-413-206 0-314 166-314 413 0 249 111 421 314 421" id="aj"/><g id="v"><use transform="matrix(0.010850694444444444,0,0,0.010850694444444444,0,0)" xlink:href="#ai"/><use transform="matrix(0.010850694444444444,0,0,0.010850694444444444,12.71701388888889,0)" xlink:href="#Z"/><use transform="matrix(0.010850694444444444,0,0,0.010850694444444444,25.1953125,0)" xlink:href="#aj"/><use transform="matrix(0.010850694444444444,0,0,0.010850694444444444,38.80208333333333,0)" xlink:href="#X"/><use transform="matrix(0.010850694444444444,0,0,0.010850694444444444,44.18402777777777,0)" xlink:href="#R"/></g><g id="w"><use transform="matrix(0.010850694444444444,0,0,0.010850694444444444,0,0)" xlink:href="#ab"/><use transform="matrix(0.010850694444444444,0,0,0.010850694444444444,16.9921875,0)" xlink:href="#ad"/><use transform="matrix(0.010850694444444444,0,0,0.010850694444444444,30.598958333333332,0)" xlink:href="#R"/><use transform="matrix(0.010850694444444444,0,0,0.010850694444444444,43.5546875,0)" xlink:href="#L"/></g><g id="x"><use transform="matrix(0.010850694444444444,0,0,0.010850694444444444,0,0)" xlink:href="#E"/><use transform="matrix(0.010850694444444444,0,0,0.010850694444444444,13.118489583333332,0)" xlink:href="#K"/><use transform="matrix(0.010850694444444444,0,0,0.010850694444444444,18.50043402777778,0)" xlink:href="#X"/><use transform="matrix(0.010850694444444444,0,0,0.010850694444444444,23.88237847222222,0)" xlink:href="#R"/></g><path d="M789 20c-398 0-667-293-667-764 0-473 273-766 655-766 315 0 558 198 612 487h-196c-61-191-204-311-415-311-262 0-471 207-471 590 0 380 208 588 482 588 249 0 420-165 425-427H828v-166h572v163c0 370-256 606-611 606" id="ak"/><g id="y"><use transform="matrix(0.010850694444444444,0,0,0.010850694444444444,0,0)" xlink:href="#ak"/><use transform="matrix(0.010850694444444444,0,0,0.010850694444444444,16.57986111111111,0)" xlink:href="#X"/><use transform="matrix(0.010850694444444444,0,0,0.010850694444444444,21.961805555555557,0)" xlink:href="#O"/><use transform="matrix(0.010850694444444444,0,0,0.010850694444444444,35.286458333333336,0)" xlink:href="#aj"/><use transform="matrix(0.010850694444444444,0,0,0.010850694444444444,49.11024305555556,0)" xlink:href="#Z"/><use transform="matrix(0.010850694444444444,0,0,0.010850694444444444,61.58854166666667,0)" xlink:href="#X"/></g><path d="M180 0v-1490h510c348 0 508 209 508 474 0 266-160 477-507 477H370V0H180zm190-706h312c236 0 327-133 327-310 0-176-91-307-329-307H370v617" id="al"/><g id="z"><use transform="matrix(0.010850694444444444,0,0,0.010850694444444444,0,0)" xlink:href="#al"/><use transform="matrix(0.010850694444444444,0,0,0.010850694444444444,14.192708333333332,0)" xlink:href="#S"/><use transform="matrix(0.010850694444444444,0,0,0.010850694444444444,22.189670138888886,0)" xlink:href="#O"/><use transform="matrix(0.010850694444444444,0,0,0.010850694444444444,35.514322916666664,0)" xlink:href="#ah"/><use transform="matrix(0.010850694444444444,0,0,0.010850694444444444,48.209635416666664,0)" xlink:href="#R"/><use transform="matrix(0.010850694444444444,0,0,0.010850694444444444,61.16536458333333,0)" xlink:href="#I"/><use transform="matrix(0.010850694444444444,0,0,0.010850694444444444,72.89496527777777,0)" xlink:href="#I"/></g><use transform="matrix(0.010850694444444444,0,0,0.010850694444444444,0,0)" xlink:href="#N" id="A"/><use transform="matrix(0.010850694444444444,0,0,0.010850694444444444,0,0)" xlink:href="#Q" id="B"/><path d="M52 0l541-1490h220L1361 0h-200l-149-416H398L254 0H52zm404-582h497c-103-290-145-390-251-756-108 377-145 460-246 756" id="am"/><use transform="matrix(0.010850694444444444,0,0,0.010850694444444444,0,0)" xlink:href="#am" id="C"/><path d="M232-923l-22-567h194l-22 567H232" id="an"/><g id="D"><use transform="matrix(0.010850694444444444,0,0,0.010850694444444444,0,0)" xlink:href="#am"/><use transform="matrix(0.010850694444444444,0,0,0.010850694444444444,13.57421875,0)" xlink:href="#an"/></g></defs></g></svg>