<svg xmlns="http://www.w3.org/2000/svg" xmlns:xlink="http://www.w3.org/1999/xlink" xmlns:lucid="lucid" width="1113.32" height="622"><g transform="translate(-493.3400809716603 461)" lucid:page-tab-id="0_0"><path d="M0-500h2000V500H0z" fill="#fff"/><path d="M494.34-454a6 6 0 0 1 6-6h1099.32a6 6 0 0 1 6 6v608a6 6 0 0 1-6 6H500.34a6 6 0 0 1-6-6z" stroke="#000" stroke-width="2" fill="#f7f4e4"/><path d="M520-334a6 6 0 0 1 6-6h1048a6 6 0 0 1 6 6v188a6 6 0 0 1-6 6H526a6 6 0 0 1-6-6z" stroke="#000" stroke-width="2" fill="#fff"/><use xlink:href="#a" transform="matrix(1,0,0,1,532,-328) translate(124.47135416666663 106.66666666666667)"/><use xlink:href="#b" transform="matrix(1,0,0,1,532,-328) translate(263.5598958333333 106.66666666666667)"/><use xlink:href="#c" transform="matrix(1,0,0,1,532,-328) translate(413.79427083333337 106.66666666666667)"/><use xlink:href="#d" transform="matrix(1,0,0,1,532,-328) translate(590.0442708333334 106.66666666666667)"/><path d="M520-114a6 6 0 0 1 6-6h148a6 6 0 0 1 6 6V-6a6 6 0 0 1-6 6H526a6 6 0 0 1-6-6z" stroke="#000" stroke-width="2" fill="#fff"/><use xlink:href="#e" transform="matrix(1,0,0,1,532,-108) translate(43.73567708333333 58.833333333333336)"/><path d="M520-434a6 6 0 0 1 6-6h573.77a6 6 0 0 1 6 6v62.54a6 6 0 0 1-6 6H526a6 6 0 0 1-6-6z" fill="none"/><use xlink:href="#f" transform="matrix(1,0,0,1,525,-435) translate(0 51.90104166666667)"/><use xlink:href="#g" transform="matrix(1,0,0,1,525,-435) translate(182.18750000000003 51.90104166666667)"/><use xlink:href="#h" transform="matrix(1,0,0,1,525,-435) translate(412.578125 51.90104166666667)"/><path d="M700-114a6 6 0 0 1 6-6h148a6 6 0 0 1 6 6V-6a6 6 0 0 1-6 6H706a6 6 0 0 1-6-6z" stroke="#000" stroke-width="2" fill="#fff"/><use xlink:href="#i" transform="matrix(1,0,0,1,712,-108) translate(51.424479166666664 58.833333333333336)"/><path d="M880-114a6 6 0 0 1 6-6h148a6 6 0 0 1 6 6V-6a6 6 0 0 1-6 6H886a6 6 0 0 1-6-6z" stroke="#000" stroke-width="2" fill="#fff"/><use xlink:href="#j" transform="matrix(1,0,0,1,892,-108) translate(25.06380208333333 58.833333333333336)"/><path d="M1060-114a6 6 0 0 1 6-6h148a6 6 0 0 1 6 6V-6a6 6 0 0 1-6 6h-148a6 6 0 0 1-6-6z" stroke="#000" stroke-width="2" fill="#fff"/><use xlink:href="#k" transform="matrix(1,0,0,1,1072,-108) translate(24.6796875 58.833333333333336)"/><path d="M1240-114a6 6 0 0 1 6-6h148a6 6 0 0 1 6 6V-6a6 6 0 0 1-6 6h-148a6 6 0 0 1-6-6z" stroke="#000" stroke-width="2" fill="#fff"/><use xlink:href="#l" transform="matrix(1,0,0,1,1252,-108) translate(9.035156250000007 58.833333333333336)"/><path d="M1420-114a6 6 0 0 1 6-6h148a6 6 0 0 1 6 6V-6a6 6 0 0 1-6 6h-148a6 6 0 0 1-6-6z" stroke="#000" stroke-width="2" fill="#fff"/><use xlink:href="#m" transform="matrix(1,0,0,1,1432,-108) translate(41.50911458333333 58.833333333333336)"/><path d="M520 26a6 6 0 0 1 6-6h148a6 6 0 0 1 6 6v108a6 6 0 0 1-6 6H526a6 6 0 0 1-6-6z" stroke="#000" stroke-width="2" fill="#fff"/><use xlink:href="#n" transform="matrix(1,0,0,1,532,32) translate(33.37109375 58.833333333333336)"/><path d="M700 26a6 6 0 0 1 6-6h148a6 6 0 0 1 6 6v108a6 6 0 0 1-6 6H706a6 6 0 0 1-6-6z" stroke="#000" stroke-width="2" fill="#fff"/><use xlink:href="#o" transform="matrix(1,0,0,1,712,32) translate(30.71484375 58.833333333333336)"/><path d="M880 26a6 6 0 0 1 6-6h148a6 6 0 0 1 6 6v108a6 6 0 0 1-6 6H886a6 6 0 0 1-6-6z" stroke="#000" stroke-width="2" fill="#fff"/><use xlink:href="#p" transform="matrix(1,0,0,1,892,32) translate(40.83203125 58.833333333333336)"/><path d="M1060 26a6 6 0 0 1 6-6h148a6 6 0 0 1 6 6v108a6 6 0 0 1-6 6h-148a6 6 0 0 1-6-6z" stroke="#000" stroke-width="2" fill="#fff"/><use xlink:href="#q" transform="matrix(1,0,0,1,1072,32) translate(11.177083333333329 58.833333333333336)"/><path d="M1240 26a6 6 0 0 1 6-6h148a6 6 0 0 1 6 6v108a6 6 0 0 1-6 6h-148a6 6 0 0 1-6-6z" stroke="#000" stroke-width="2" fill="#fff"/><g><use xlink:href="#r" transform="matrix(1,0,0,1,1252,32) translate(44.920572916666664 58.833333333333336)"/></g><path d="M1420 26a6 6 0 0 1 6-6h148a6 6 0 0 1 6 6v108a6 6 0 0 1-6 6h-148a6 6 0 0 1-6-6z" stroke="#000" stroke-width="2" fill="#fff"/><g><use xlink:href="#s" transform="matrix(1,0,0,1,1432,32) translate(39.19140625 73.58333333333334)"/></g><defs><path d="M180 0v-1490h528c311 0 458 177 458 395 0 191-114 278-244 313v14c139 9 302 137 302 371 0 225-148 397-499 397H180zm190-168h350c232 0 321-102 321-231 0-149-120-277-311-277H370v508zm0-668h328c160 0 286-101 286-255 0-129-87-231-280-231H370v486" id="t"/><path d="M471 26C259 26 90-98 90-318c0-256 228-303 435-329 202-27 287-16 287-108 0-139-79-219-234-219-161 0-248 86-283 164l-173-57c86-203 278-265 451-265 150 0 419 46 419 395V0H815v-152h-12C765-73 660 26 471 26zm31-159c199 0 310-134 310-271v-155c-30 35-226 55-295 64-131 17-246 59-246 186 0 116 97 176 231 176" id="u"/><path d="M538 24C308 24 148-78 108-271l171-41c32 123 123 178 257 178 156 0 256-77 256-169 0-77-54-128-164-154l-186-44c-203-48-300-148-300-305 0-192 176-326 414-326 230 0 351 112 402 269l-163 42c-31-80-94-158-238-158-133 0-233 69-233 162 0 83 57 129 188 160l169 40c203 48 298 149 298 302 0 196-179 339-441 339" id="v"/><path d="M628 24c-324 0-524-230-524-574 0-343 198-582 503-582 237 0 487 146 487 559v75H286c9 234 145 362 343 362 132 0 231-58 273-172l174 48C1024-91 857 24 628 24zM287-650h624c-17-190-120-322-304-322-192 0-309 151-320 322" id="w"/><g id="a"><use transform="matrix(0.026041666666666668,0,0,0.026041666666666668,0,0)" xlink:href="#t"/><use transform="matrix(0.026041666666666668,0,0,0.026041666666666668,34.895833333333336,0)" xlink:href="#u"/><use transform="matrix(0.026041666666666668,0,0,0.026041666666666668,64.84375,0)" xlink:href="#v"/><use transform="matrix(0.026041666666666668,0,0,0.026041666666666668,92.99479166666667,0)" xlink:href="#w"/></g><path d="M180 0v-1490h190v1322h690V0H180" id="x"/><path d="M158 0v-1118h180V0H158zm91-1301c-68 0-125-53-125-119s57-119 125-119c69 0 126 53 126 119s-57 119-126 119" id="y"/><path d="M338-670V0H158v-1118h173l1 207c72-158 192-221 342-221 226 0 378 139 378 422V0H872v-695c0-172-96-275-252-275-161 0-282 109-282 300" id="z"/><path d="M537 14c-226 0-379-139-379-422v-710h180v695c0 172 97 275 253 275 160 0 281-109 281-300v-670h181V0H879v-209C806-46 684 14 537 14" id="A"/><path d="M65 0l393-574-370-544h210c88 136 192 297 267 435 67-142 176-302 264-435h206L661-564 1053 0H844c-94-144-206-310-287-458C484-308 366-142 273 0H65" id="B"/><g id="b"><use transform="matrix(0.026041666666666668,0,0,0.026041666666666668,0,0)" xlink:href="#x"/><use transform="matrix(0.026041666666666668,0,0,0.026041666666666668,30.15625,0)" xlink:href="#y"/><use transform="matrix(0.026041666666666668,0,0,0.026041666666666668,43.07291666666667,0)" xlink:href="#z"/><use transform="matrix(0.026041666666666668,0,0,0.026041666666666668,74.58333333333334,0)" xlink:href="#A"/><use transform="matrix(0.026041666666666668,0,0,0.026041666666666668,106.11979166666669,0)" xlink:href="#B"/></g><path d="M180 0v-1490h190c0 262 1 526-3 784 217-279 467-523 702-784h249L716-845 1319 0h-225L585-716 370-489V0H180" id="C"/><path d="M158 0v-1118h174v172h12c41-113 157-188 290-188 26 0 70 2 91 3v181c-11-2-60-10-108-10-161 0-279 109-279 260V0H158" id="D"/><path d="M338-1490V0H158v-1490h180" id="E"/><g id="c"><use transform="matrix(0.026041666666666668,0,0,0.026041666666666668,0,0)" xlink:href="#C"/><use transform="matrix(0.026041666666666668,0,0,0.026041666666666668,33.723958333333336,0)" xlink:href="#w"/><use transform="matrix(0.026041666666666668,0,0,0.026041666666666668,64.81770833333334,0)" xlink:href="#D"/><use transform="matrix(0.026041666666666668,0,0,0.026041666666666668,85.72916666666667,0)" xlink:href="#z"/><use transform="matrix(0.026041666666666668,0,0,0.026041666666666668,117.23958333333334,0)" xlink:href="#w"/><use transform="matrix(0.026041666666666668,0,0,0.026041666666666668,148.33333333333334,0)" xlink:href="#E"/></g><path d="M783 20c-382 0-661-292-661-764 0-473 279-766 661-766 302 0 548 182 601 489h-190c-42-204-217-313-411-313-268 0-476 208-476 590 0 381 209 588 476 588 195 0 369-110 411-313h190c-52 303-296 489-601 489" id="F"/><path d="M613 24c-304 0-509-231-509-576 0-350 205-580 509-580 305 0 511 230 511 580 0 345-206 576-511 576zm0-161c226 0 329-195 329-415 0-222-103-419-329-419-223 0-326 196-326 419 0 220 103 415 326 415" id="G"/><path d="M158 0v-1118h175l1 205c55-151 181-225 313-225 147 0 245 90 285 228 53-141 190-228 352-228 194 0 352 125 352 384V0h-181v-749c0-161-105-225-225-225-151 0-243 103-243 244V0H807v-767c0-124-93-207-219-207-131 0-250 92-250 270V0H158" id="H"/><path d="M158 418v-1536h174v179h20c37-59 106-193 324-193 279 0 474 222 474 576 0 356-194 580-473 580-213 0-288-135-325-197h-14v591H158zm492-555c209 0 317-186 317-421 0-232-105-413-317-413-206 0-314 166-314 413 0 249 111 421 314 421" id="I"/><path d="M598-1118v154H368v674c0 100 37 144 132 144 23 0 62-6 92-12L629-6c-37 13-88 20-134 20-193 0-307-107-307-290v-688H20v-154h168v-266h180v266h230" id="J"/><g id="d"><use transform="matrix(0.026041666666666668,0,0,0.026041666666666668,0,0)" xlink:href="#F"/><use transform="matrix(0.026041666666666668,0,0,0.026041666666666668,38.958333333333336,0)" xlink:href="#G"/><use transform="matrix(0.026041666666666668,0,0,0.026041666666666668,70.9375,0)" xlink:href="#H"/><use transform="matrix(0.026041666666666668,0,0,0.026041666666666668,117.65625,0)" xlink:href="#I"/><use transform="matrix(0.026041666666666668,0,0,0.026041666666666668,150.3125,0)" xlink:href="#G"/><use transform="matrix(0.026041666666666668,0,0,0.026041666666666668,182.29166666666666,0)" xlink:href="#z"/><use transform="matrix(0.026041666666666668,0,0,0.026041666666666668,213.8020833333333,0)" xlink:href="#w"/><use transform="matrix(0.026041666666666668,0,0,0.026041666666666668,244.8958333333333,0)" xlink:href="#z"/><use transform="matrix(0.026041666666666668,0,0,0.026041666666666668,276.40625,0)" xlink:href="#J"/><use transform="matrix(0.026041666666666668,0,0,0.026041666666666668,293.33333333333337,0)" xlink:href="#v"/></g><path d="M481 0L54-1118h197c107 314 236 620 325 951 87-331 217-637 324-951h197L670 0H481" id="K"/><path d="M678-1118v154H420V0H240v-964H20v-154h220v-149c0-194 155-293 318-293 85 0 141 18 168 30l-50 154c-19-6-47-17-97-17-111 0-159 58-159 166v109h258" id="L"/><g id="e"><use transform="matrix(0.013020833333333334,0,0,0.013020833333333334,0,0)" xlink:href="#K"/><use transform="matrix(0.013020833333333334,0,0,0.013020833333333334,15.377604166666668,0)" xlink:href="#L"/><use transform="matrix(0.013020833333333334,0,0,0.013020833333333334,24.83072916666667,0)" xlink:href="#u"/><use transform="matrix(0.013020833333333334,0,0,0.013020833333333334,39.80468750000001,0)" xlink:href="#J"/></g><path d="M135 0v-1490h305c1 251 0 501-5 746 157-254 405-512 598-746h373L849-845 1422 0h-361L638-644 440-426V0H135" id="M"/><path d="M633 22C291 22 81-200 81-553c0-345 210-579 537-579 292 0 525 185 525 567v84H378c7 183 109 277 260 277 105 0 184-46 216-132l272 51C1071-99 893 22 633 22zM380-669h474c-15-146-94-237-233-237-143 0-229 99-241 237" id="N"/><path d="M128 0v-1118h290v195h12c54-169 184-238 367-200v268c-27-8-86-15-130-15-138 0-239 95-239 234V0H128" id="O"/><path d="M428-647V0H128v-1118h283l4 231c63-156 176-245 348-245 232 0 384 159 384 421V0H847v-659c0-139-76-222-202-222-128 0-217 86-217 234" id="P"/><path d="M428-1490V0H128v-1490h300" id="Q"/><g id="f"><use transform="matrix(0.026041666666666668,0,0,0.026041666666666668,0,0)" xlink:href="#M"/><use transform="matrix(0.026041666666666668,0,0,0.026041666666666668,36.25,0)" xlink:href="#N"/><use transform="matrix(0.026041666666666668,0,0,0.026041666666666668,68.02083333333334,0)" xlink:href="#O"/><use transform="matrix(0.026041666666666668,0,0,0.026041666666666668,90.13020833333334,0)" xlink:href="#P"/><use transform="matrix(0.026041666666666668,0,0,0.026041666666666668,123.33333333333334,0)" xlink:href="#N"/><use transform="matrix(0.026041666666666668,0,0,0.026041666666666668,155.10416666666669,0)" xlink:href="#Q"/></g><path d="M49 0l509-1490h400L1480 0h-339l-115-346H497L386 0H49zm524-585h374c-75-213-124-402-192-666-66 268-110 453-182 666" id="R"/><path d="M537 19C279 19 81-185 81-557c0-382 206-575 454-575 190 0 278 113 318 202h10v-560h300V0H868v-179h-15C812-89 719 19 537 19zm92-241c153 0 240-134 240-336 0-203-86-334-240-334-158 0-240 138-240 334 0 197 84 336 240 336" id="S"/><path d="M572 22C302 22 117-98 78-306l279-48c29 105 101 156 224 156 114 0 185-48 185-115 0-118-228-130-337-155-215-49-322-150-322-317 0-215 187-347 470-347 265 0 424 116 466 298l-266 47c-24-76-87-130-196-130-98 0-174 46-174 113 0 56 38 95 144 117l201 40c216 44 320 143 320 302 0 220-207 367-500 367" id="T"/><g id="g"><use transform="matrix(0.026041666666666668,0,0,0.026041666666666668,0,0)" xlink:href="#R"/><use transform="matrix(0.026041666666666668,0,0,0.026041666666666668,38.59375,0)" xlink:href="#S"/><use transform="matrix(0.026041666666666668,0,0,0.026041666666666668,72.21354166666667,0)" xlink:href="#S"/><use transform="matrix(0.026041666666666668,0,0,0.026041666666666668,105.83333333333334,0)" xlink:href="#O"/><use transform="matrix(0.026041666666666668,0,0,0.026041666666666668,126.25,0)" xlink:href="#N"/><use transform="matrix(0.026041666666666668,0,0,0.026041666666666668,158.02083333333334,0)" xlink:href="#T"/><use transform="matrix(0.026041666666666668,0,0,0.026041666666666668,187.890625,0)" xlink:href="#T"/></g><path d="M681 22C323 22 94-145 85-462h297c10 151 131 226 296 226 163 0 271-77 271-190 0-102-95-149-257-189l-164-41c-252-61-403-188-403-405 0-269 236-449 560-449 330 0 546 183 551 445H941c-11-119-106-188-259-188-156 0-244 72-244 172-3 156 226 185 373 221 250 61 445 186 445 436 0 271-213 446-575 446" id="U"/><path d="M128 418v-1536h295v188h14c41-89 129-202 319-202 248 0 453 193 453 575 0 372-197 576-455 576-183 0-275-108-317-198h-9v597H128zm534-640c156 0 240-139 240-336 0-196-83-334-240-334-154 0-241 131-241 334 0 202 88 336 241 336" id="V"/><path d="M440 22C227 22 68-92 68-313c0-250 202-322 422-343 195-21 271-24 271-105 0-95-63-149-175-149-116 0-187 57-211 129l-275-46c57-194 237-305 487-305 240 0 474 108 474 379V0H777v-155h-10C713-51 605 22 440 22zm85-211c140 0 238-93 238-211v-121c-37 26-156 42-222 51-111 16-185 59-185 149 0 87 70 132 169 132" id="W"/><path d="M628 22C291 22 81-210 81-554c0-346 210-578 547-578 265 0 455 142 497 372l-279 52c-25-116-99-188-215-188-160 0-244 139-244 341 0 200 84 341 244 341 116 0 193-74 217-195l279 51C1085-123 896 22 628 22" id="X"/><g id="h"><use transform="matrix(0.026041666666666668,0,0,0.026041666666666668,0,0)" xlink:href="#U"/><use transform="matrix(0.026041666666666668,0,0,0.026041666666666668,34.921875,0)" xlink:href="#V"/><use transform="matrix(0.026041666666666668,0,0,0.026041666666666668,69.0625,0)" xlink:href="#W"/><use transform="matrix(0.026041666666666668,0,0,0.026041666666666668,100.02604166666667,0)" xlink:href="#X"/><use transform="matrix(0.026041666666666668,0,0,0.026041666666666668,131.40625,0)" xlink:href="#N"/></g><g id="i"><use transform="matrix(0.013020833333333334,0,0,0.013020833333333334,0,0)" xlink:href="#L"/><use transform="matrix(0.013020833333333334,0,0,0.013020833333333334,9.453125000000002,0)" xlink:href="#u"/><use transform="matrix(0.013020833333333334,0,0,0.013020833333333334,24.427083333333336,0)" xlink:href="#J"/></g><path d="M158 0v-1490h180v865h22l478-493h223L593-638 1096 0H865L456-523 338-412V0H158" id="Y"/><g id="j"><use transform="matrix(0.013020833333333334,0,0,0.013020833333333334,0,0)" xlink:href="#D"/><use transform="matrix(0.013020833333333334,0,0,0.013020833333333334,9.596354166666666,0)" xlink:href="#w"/><use transform="matrix(0.013020833333333334,0,0,0.013020833333333334,25.403645833333332,0)" xlink:href="#u"/><use transform="matrix(0.013020833333333334,0,0,0.013020833333333334,40.377604166666664,0)" xlink:href="#E"/><use transform="matrix(0.013020833333333334,0,0,0.013020833333333334,47.2265625,0)" xlink:href="#J"/><use transform="matrix(0.013020833333333334,0,0,0.013020833333333334,55.69010416666667,0)" xlink:href="#w"/><use transform="matrix(0.013020833333333334,0,0,0.013020833333333334,71.23697916666667,0)" xlink:href="#Y"/></g><path d="M613 24c-304 0-509-231-509-576 0-350 205-580 509-580 216 0 392 114 453 309l-173 49c-33-115-133-197-280-197-223 0-326 196-326 419 0 220 103 415 326 415 150 0 252-85 285-206l172 49C1010-95 832 24 613 24" id="Z"/><g id="k"><use transform="matrix(0.013020833333333334,0,0,0.013020833333333334,0,0)" xlink:href="#I"/><use transform="matrix(0.013020833333333334,0,0,0.013020833333333334,16.328125,0)" xlink:href="#Z"/><use transform="matrix(0.013020833333333334,0,0,0.013020833333333334,31.5625,0)" xlink:href="#v"/><use transform="matrix(0.013020833333333334,0,0,0.013020833333333334,45.638020833333336,0)" xlink:href="#I"/><use transform="matrix(0.013020833333333334,0,0,0.013020833333333334,61.966145833333336,0)" xlink:href="#Y"/><use transform="matrix(0.013020833333333334,0,0,0.013020833333333334,76.6015625,0)" xlink:href="#D"/></g><path d="M798-719v166H144v-166h654" id="aa"/><g id="l"><use transform="matrix(0.013020833333333334,0,0,0.013020833333333334,0,0)" xlink:href="#Y"/><use transform="matrix(0.013020833333333334,0,0,0.013020833333333334,14.635416666666668,0)" xlink:href="#K"/><use transform="matrix(0.013020833333333334,0,0,0.013020833333333334,29.622395833333336,0)" xlink:href="#H"/><use transform="matrix(0.013020833333333334,0,0,0.013020833333333334,52.981770833333336,0)" xlink:href="#aa"/><use transform="matrix(0.013020833333333334,0,0,0.013020833333333334,65.24739583333334,0)" xlink:href="#y"/><use transform="matrix(0.013020833333333334,0,0,0.013020833333333334,71.70572916666667,0)" xlink:href="#z"/><use transform="matrix(0.013020833333333334,0,0,0.013020833333333334,87.4609375,0)" xlink:href="#J"/><use transform="matrix(0.013020833333333334,0,0,0.013020833333333334,95.92447916666666,0)" xlink:href="#w"/><use transform="matrix(0.013020833333333334,0,0,0.013020833333333334,111.47135416666664,0)" xlink:href="#E"/></g><g id="m"><use transform="matrix(0.013020833333333334,0,0,0.013020833333333334,0,0)" xlink:href="#Y"/><use transform="matrix(0.013020833333333334,0,0,0.013020833333333334,14.635416666666668,0)" xlink:href="#K"/><use transform="matrix(0.013020833333333334,0,0,0.013020833333333334,29.622395833333336,0)" xlink:href="#H"/></g><g id="n"><use transform="matrix(0.013020833333333334,0,0,0.013020833333333334,0,0)" xlink:href="#z"/><use transform="matrix(0.013020833333333334,0,0,0.013020833333333334,15.364583333333334,0)" xlink:href="#K"/><use transform="matrix(0.013020833333333334,0,0,0.013020833333333334,30.3515625,0)" xlink:href="#H"/><use transform="matrix(0.013020833333333334,0,0,0.013020833333333334,53.7109375,0)" xlink:href="#w"/></g><path d="M577 24c-279 0-473-224-473-580 0-354 195-576 474-576 218 0 287 134 324 193h14v-551h180V0H922v-173h-20C865-111 790 24 577 24zm27-161c203 0 314-172 314-421 0-247-108-413-314-413-212 0-317 181-317 413 0 235 108 421 317 421" id="ab"/><g id="o"><use transform="matrix(0.013020833333333334,0,0,0.013020833333333334,0,0)" xlink:href="#z"/><use transform="matrix(0.013020833333333334,0,0,0.013020833333333334,15.364583333333334,0)" xlink:href="#K"/><use transform="matrix(0.013020833333333334,0,0,0.013020833333333334,30.3515625,0)" xlink:href="#y"/><use transform="matrix(0.013020833333333334,0,0,0.013020833333333334,36.809895833333336,0)" xlink:href="#ab"/><use transform="matrix(0.013020833333333334,0,0,0.013020833333333334,53.138020833333336,0)" xlink:href="#y"/><use transform="matrix(0.013020833333333334,0,0,0.013020833333333334,59.59635416666667,0)" xlink:href="#u"/></g><g id="p"><use transform="matrix(0.013020833333333334,0,0,0.013020833333333334,0,0)" xlink:href="#D"/><use transform="matrix(0.013020833333333334,0,0,0.013020833333333334,10.455729166666666,0)" xlink:href="#L"/><use transform="matrix(0.013020833333333334,0,0,0.013020833333333334,20.325520833333336,0)" xlink:href="#Y"/><use transform="matrix(0.013020833333333334,0,0,0.013020833333333334,34.9609375,0)" xlink:href="#y"/><use transform="matrix(0.013020833333333334,0,0,0.013020833333333334,41.419270833333336,0)" xlink:href="#E"/><use transform="matrix(0.013020833333333334,0,0,0.013020833333333334,47.87760416666667,0)" xlink:href="#E"/></g><path d="M934 0v166H0V0h934" id="ac"/><path d="M677 24c-213 0-288-135-325-197h-20V0H158v-1490h180v551h14c37-59 106-193 324-193 279 0 474 222 474 576 0 356-194 580-473 580zm-27-161c209 0 317-186 317-421 0-232-105-413-317-413-206 0-314 166-314 413 0 249 111 421 314 421" id="ad"/><g id="q"><use transform="matrix(0.013020833333333334,0,0,0.013020833333333334,0,0)" xlink:href="#z"/><use transform="matrix(0.013020833333333334,0,0,0.013020833333333334,15.755208333333334,0)" xlink:href="#L"/><use transform="matrix(0.013020833333333334,0,0,0.013020833333333334,25.247395833333336,0)" xlink:href="#ac"/><use transform="matrix(0.013020833333333334,0,0,0.013020833333333334,37.40885416666667,0)" xlink:href="#J"/><use transform="matrix(0.013020833333333334,0,0,0.013020833333333334,46.26302083333334,0)" xlink:href="#u"/><use transform="matrix(0.013020833333333334,0,0,0.013020833333333334,61.23697916666668,0)" xlink:href="#ad"/><use transform="matrix(0.013020833333333334,0,0,0.013020833333333334,77.56510416666669,0)" xlink:href="#E"/><use transform="matrix(0.013020833333333334,0,0,0.013020833333333334,84.02343750000001,0)" xlink:href="#w"/><use transform="matrix(0.013020833333333334,0,0,0.013020833333333334,99.57031250000001,0)" xlink:href="#v"/></g><g id="r"><use transform="matrix(0.013020833333333334,0,0,0.013020833333333334,0,0)" xlink:href="#v"/><use transform="matrix(0.013020833333333334,0,0,0.013020833333333334,14.075520833333334,0)" xlink:href="#z"/><use transform="matrix(0.013020833333333334,0,0,0.013020833333333334,29.830729166666668,0)" xlink:href="#ab"/></g><path d="M295 13c-75 0-135-60-135-135s60-135 135-135 135 60 135 135S370 13 295 13" id="ae"/><g id="s"><use transform="matrix(0.032552083333333336,0,0,0.032552083333333336,0,0)" xlink:href="#ae"/><use transform="matrix(0.032552083333333336,0,0,0.032552083333333336,19.205729166666668,0)" xlink:href="#ae"/><use transform="matrix(0.032552083333333336,0,0,0.032552083333333336,38.411458333333336,0)" xlink:href="#ae"/></g></defs></g></svg>