<svg xmlns="http://www.w3.org/2000/svg" xmlns:xlink="http://www.w3.org/1999/xlink" xmlns:lucid="lucid" width="1660.98" height="1330.31"><g transform="translate(1254.7026232813741 339.8979099059445)" lucid:page-tab-id="0_0"><path d="M-1500-500H500v1500h-2000z" fill="#fff"/><path d="M240.48 60.74l9.15 260.58v.08l-1.76 88.52v.06l-4.3 69.23v.06l-5.92 56.6v.06l-6.98 47.4v.04l-7.68 40.32v.02h-.02v.04l-8.13 34.73v.04l-8.44 30.25v.04l-8.63 26.57v.02h-.02v.02L189 738.98v.04L180.17 760v.02h-.02v.02l-8.85 18.83v.04h-.02l-8.86 16.97-.02.02v.02l-8.9 15.4v.02l-.02.02-8.9 14.04v.02h-.02v.02h-.02l-8.9 12.84h-.02v.02h-.02v.02l-8.95 11.8v.02h-.02v.02h-.02l-8.96 10.86h-.02v.02l-.02.02-9.04 10.04v.02h-.02v.02h-.02l-9.1 9.3-.02.02-.02.02-9.2 8.64-.02.02h-.02v.02l-7.4 6.45h-.02v.02h-.02l-10.05 8.1v.02h-.02v.02h-.02l-10.65 7.88h-.02v.02h-.02l-11.34 7.68h-.02v.02h-.02v.02l-12.1 7.46h-.02l-.02.02h-.02l-12.94 7.26h-.02v.02h-.02l-13.9 7.05h-.02v.02h-.02l-14.95 6.8h-.02v.02h-.04l-16.14 6.55h-.02v.02h-.04l-17.48 6.26h-.06v.02l-19.02 5.9h-.02v.02h-.04l-20.76 5.52h-.04l-22.75 5.04h-.06l-25 4.45h-.04l-27.58 3.73h-.06l-30.47 2.8h-.04v.02h-.02l-33.73 1.7h-.04l-37.32.3h-.06l-41.1-1.4h-.06l-44.8-3.4h-.06l-47.8-5.63h-.06l-48.9-7.85h-.06l-46.3-9.43h-.04v-.02h-.02l-38.34-9.46h-.06l-26.28-7.66h-.04v-.02h-.02l-15.07-5.07h-.04v-.02l-4.8-1.84 1.05-2.74 4.78 1.83 15 5.04 26.24 7.63 38.27 9.44 46.23 9.4 48.84 7.84 47.73 5.63 44.74 3.4 41.04 1.37 37.25-.3 33.67-1.7 30.42-2.8 27.5-3.7 24.94-4.42 22.68-5.02 20.7-5.5 18.95-5.9 17.42-6.22 16.08-6.52 14.88-6.78 13.82-7 12.9-7.23 12.03-7.43 11.3-7.63 10.6-7.86 10-8.06 7.35-6.4 9.15-8.6 9.06-9.26 8.98-9.98 8.94-10.8 8.9-11.75 8.88-12.8 8.87-13.96 8.85-15.34 8.84-16.92 8.8-18.76 8.8-20.9 8.7-23.47 8.6-26.5 8.43-30.18 8.1-34.67 7.66-40.25 6.95-47.32 5.92-56.53 4.3-69.17 1.76-88.45-9.15-260.54-.18-6.86h2.96zm-820.37-399.2l243.78 31.75h.08l102 19.37h.04v.02l80.7 18.84h.04v.02l64 17.8v.02h.06L-37.95-234h.04v.02h.02l41.48 15.4h.04v.02l34 14.25h.04v.02l28.16 13.22h.02v.02h.02l23.57 12.3v.02h.04v.02l19.92 11.48h.02v.02h.02l16.96 10.76h.02v.02h.02v.02l14.58 10.1v.02h.02v.02h.02l12.6 9.56h.02v.02h.02v.02l10.97 9.06h.02v.04l9.6 8.62v.02h.04v.02l8.43 8.25.02.02v.02l7.44 7.9.02.02v.02h.02l6.58 7.63h.02v.02h.02l5.85 7.38v.02h.02v.02l5.2 7.16h.02v.04l4.64 6.97h.02v.04h.02l4.12 6.8v.04h.02v.02l3.68 6.67v.02h.02v.02l3.27 6.58v.04l2.9 6.5v.02h.02v.02l.02.04h-3.23l-2.37-5.34-3.23-6.5-3.64-6.63-4.1-6.75-4.6-6.9-5.15-7.1-5.8-7.33-6.53-7.57-7.4-7.87-8.37-8.2-9.54-8.58-10.9-9.02-12.55-9.5-14.5-10.1-16.9-10.7-19.86-11.46-23.5-12.27-28.1-13.2-33.92-14.23-41.42-15.38-51.17-16.6-63.94-17.8-80.63-18.83-101.9-19.36-245.4-31.94h-.02l-2.96-.42h-.06l-.73-.15h-.02l-.02-.02-.3-.07h-.06l-.15-.04h-.04v-.02h-.02l-.15-.06h-.04v-.02h-.06v-.02h-.04v-.02h-.02l-.1-.06h-.04v-.02h-.04v-.02h-.02v-.02h-.04v-.02h-.02l-.02-.02h-.02v-.02h-.02v-.02h-.04v-.02h-.02v-.02h-.02v-.02h-.02v-.02h-.02v-.02h-.02l-.02-.02v-.02h-.02l-.02-.02v-.02h-.02v-.02h-.02v-.02h-.02v-.02h-.02v-.02h-.02v-.04h-.02v-.02h-.02v-.02h-.02v-.04h-.02v-.02l-.02-.02v-.02h-.02v-.04h-.02v-.04h-.02v-.04h-.02v-.04h-.02v-.06h-.02v-.06h-.02v-.06h-.02v-.08h-.02V-337.77h-.02V-337.9h-.02V-338.3h.02v-.1h.02v-.06l.02-.02v-.06h.02v-.04l.02-.02v-.04h.02v-.04h.02v-.04h.02v-.04h.02v-.04h.02v-.04h.02v-.02h.02v-.04h.02v-.02h.02v-.02h.02v-.04h.02v-.02h.02v-.02h.02v-.02h.02v-.02h.02v-.02h.02v-.02h.02v-.02h.02v-.02h.02v-.02h.02v-.02h.02v-.02h.02v-.02h.04v-.02h.02v-.02h.02v-.02h.04v-.02h.02v-.02h.04v-.02h.04v-.02h.04v-.02h.04v-.02h.04v-.02h.02l.1-.04h.02v-.02h.06v-.02h.06v-.02h.06v-.02l.12-.02h.04v-.02h.04l.1-.02h.06l.2-.04h.04l.4-.05h.06l1.04-.05h.06l4.3-.06z" stroke="#3a414a" stroke-width=".05" fill="#3a414a"/><path d="M-575.4-338.36h-4.52l-.03-1.45 4.54-.07z" fill="#3a414a"/><path stroke="#3a414a" stroke-width=".05" fill="#3a414a"/><path d="M-560.7 937.03l-5.9 7.15-8.04-12.66z" fill="#3a414a"/><path d="M-558.26 936.4l-8.5 10.28-11.56-18.2zm-8.18 5.27l3.32-4.02-7.84-3.1z" stroke="#3a414a" stroke-width=".05" fill="#3a414a"/><use xlink:href="#a" transform="matrix(1,0,0,1,68.44885373780374,-46.57740822835976) translate(45.10428385416667 23.680555555555557)"/><use xlink:href="#b" transform="matrix(1,0,0,1,68.44885373780374,-46.57740822835976) translate(115.7640060763889 23.680555555555557)"/><use xlink:href="#c" transform="matrix(1,0,0,1,68.44885373780374,-46.57740822835976) translate(150.86708767361114 23.680555555555557)"/><use xlink:href="#d" transform="matrix(1,0,0,1,68.44885373780374,-46.57740822835976) translate(218.30415364583337 23.680555555555557)"/><use xlink:href="#e" transform="matrix(1,0,0,1,68.44885373780374,-46.57740822835976) translate(0.0049999999999954525 59.17274305555556)"/><use xlink:href="#f" transform="matrix(1,0,0,1,68.44885373780374,-46.57740822835976) translate(99.96702256944444 59.17274305555556)"/><use xlink:href="#g" transform="matrix(1,0,0,1,68.44885373780374,-46.57740822835976) translate(168.91993055555557 94.66493055555556)"/><path d="M-90.54 754.03v.02h-.02v.02h-.02l-17.97 15.52h-.04v.02l-18.32 14.52v.02h-.04v.02l-18.62 13.53v.02h-.04v.02l-18.87 12.53v.02h-.04l-19.1 11.57h-.02v.02h-.02l-19.27 10.6h-.04v.02l-19.44 9.65h-.02l-.02.02-19.6 8.7v.02h-.04l-19.7 7.82h-.06v.02l-19.84 6.9h-.02l-.02.02-19.96 6.02h-.04v.02h-.02l-20.06 5.15h-.06l-20.18 4.3h-.06l-20.3 3.45h-.06l-20.46 2.6h-.06l-20.6 1.73h-.06l-20.8.87h-21.08l-21.2-.9h-.06l-19.47-1.63.26-2.95 19.44 1.64 21.13.87h20.9l20.73-.86 20.54-1.72 20.4-2.57 20.24-3.42 20.12-4.27 20-5.13 19.88-6 19.77-6.9 19.66-7.77 19.52-8.7 19.38-9.6 19.2-10.57 19.04-11.53 18.8-12.5 18.58-13.5 18.26-14.46 17.93-15.48 11.1-10.42h4.3zm203.6-464.06l-.53 25.07v.06l-1.67 26.57v.04l-2.8 26.52v.06l-3.9 26.4v.06l-5.02 26.26v.06L93 447.13v.04H93v.02l-7.2 25.76v.06l-8.28 25.45v.02h-.02v.02l-9.3 25.04h-.02v.06h-.02l-10.32 24.56v.02l-.02.02v.02l-11.3 24v.02h-.02v.04l-12.24 23.4v.02h-.02v.02L21.1 618.48v.02h-.02v.02L7.14 640.5v.02h-.02v.02l-.26.36h-3.6l1.4-2 13.9-21.92 13.1-22.65 12.2-23.33L55.12 547l10.3-24.5 9.3-24.98 8.24-25.38 7.18-25.72 6.1-26 5-26.18 3.9-26.34 2.77-26.45 1.66-26.5.53-25.05z" stroke="#3a414a" stroke-width=".05" fill="#3a414a"/><path d="M113.06 290l-2.95-.06.04-1.5h2.95z" fill="#3a414a"/><path stroke="#3a414a" stroke-width=".05" fill="#3a414a"/><path d="M-488.2 890.25l-13.62-6.3 14.72-2.9z" fill="#3a414a"/><path d="M-486.98 892.44l-19.58-9.06 21.16-4.18zm-10.1-7.92l7.65 3.53.62-5.17z" stroke="#3a414a" stroke-width=".05" fill="#3a414a"/><use xlink:href="#a" transform="matrix(1,0,0,1,-201.40877634576378,640.8769679895727) translate(45.10428385416667 23.680555555555557)"/><use xlink:href="#b" transform="matrix(1,0,0,1,-201.40877634576378,640.8769679895727) translate(115.7640060763889 23.680555555555557)"/><use xlink:href="#c" transform="matrix(1,0,0,1,-201.40877634576378,640.8769679895727) translate(150.86708767361114 23.680555555555557)"/><use xlink:href="#d" transform="matrix(1,0,0,1,-201.40877634576378,640.8769679895727) translate(218.30415364583337 23.680555555555557)"/><use xlink:href="#e" transform="matrix(1,0,0,1,-201.40877634576378,640.8769679895727) translate(0.0049999999999954525 59.17274305555556)"/><use xlink:href="#f" transform="matrix(1,0,0,1,-201.40877634576378,640.8769679895727) translate(99.96702256944444 59.17274305555556)"/><use xlink:href="#g" transform="matrix(1,0,0,1,-201.40877634576378,640.8769679895727) translate(168.91993055555557 94.66493055555556)"/><path d="M-560.48-337.36c29.66 0 53.7 24.05 53.7 53.72 0 29.66-24.04 53.7-53.7 53.7h-35.8c-29.67 0-53.72-24.04-53.72-53.7 0-29.67 24.05-53.72 53.7-53.72z" stroke="#000" stroke-width="2" fill="#00c2a8"/><use xlink:href="#h" transform="matrix(1,0,0,1,-645,-332.35735118690997) translate(36.38850911458333 56.517903645833336)"/><path d="M-560.48 180c29.66 0 53.7 24.05 53.7 53.7 0 29.68-24.04 53.73-53.7 53.73h-35.8c-29.67 0-53.72-24.05-53.72-53.72 0-29.65 24.05-53.7 53.7-53.7z" stroke="#000" stroke-width="2" fill="#00c2a8"/><use xlink:href="#i" transform="matrix(1,0,0,1,-645,185) translate(27.084472656249993 56.517903645833336)"/><path d="M-560.48 820c29.66 0 53.7 24.05 53.7 53.7 0 29.68-24.04 53.72-53.7 53.72h-35.8c-29.67 0-53.72-24.04-53.72-53.7 0-29.67 24.05-53.72 53.7-53.72z" stroke="#000" stroke-width="2" fill="#00c2a8"/><use xlink:href="#j" transform="matrix(1,0,0,1,-645,825) translate(11.967936197916671 56.517903645833336)"/><path d="M-560.48 500c29.66 0 53.7 24.05 53.7 53.7 0 29.68-24.04 53.72-53.7 53.72h-35.8c-29.67 0-53.72-24.04-53.72-53.7 0-29.67 24.05-53.72 53.7-53.72z" stroke="#000" stroke-width="2" fill="#00c2a8"/><use xlink:href="#k" transform="matrix(1,0,0,1,-645,505) translate(12.028483072916657 44.01497395833333)"/><use xlink:href="#l" transform="matrix(1,0,0,1,-645,505) translate(90.41650390625 44.01497395833333)"/><use xlink:href="#m" transform="matrix(1,0,0,1,-645,505) translate(46.298014322916664 69.02083333333334)"/><path d="M-1150.48 180c29.66 0 53.7 24.05 53.7 53.7 0 29.68-24.04 53.73-53.7 53.73h-35.8c-29.67 0-53.72-24.05-53.72-53.72 0-29.65 24.05-53.7 53.7-53.7z" stroke="#000" stroke-width="2" fill="#00c2a8"/><use xlink:href="#n" transform="matrix(1,0,0,1,-1235,185) translate(24.546549479166664 56.517903645833336)"/><path d="M129.52 180c29.66 0 53.7 24.05 53.7 53.7 0 29.68-24.03 53.73-53.7 53.73h-35.8C64.04 287.43 40 263.38 40 233.7c0-29.65 24.05-53.7 53.7-53.7z" stroke="#000" stroke-width="2" fill="#00c2a8"/><use xlink:href="#o" transform="matrix(1,0,0,1,45,185) translate(27.846354166666664 56.517903645833336)"/><path d="M-576.9 798.38h-2.96v-69.34h2.95zm0-134.4h-2.96v-54.05h2.95z" stroke="#3a414a" stroke-width=".05" fill="#3a414a"/><path d="M-576.9 609.97h-2.96v-1.55h2.95z" fill="#3a414a"/><path stroke="#3a414a" stroke-width=".05" fill="#3a414a"/><path d="M-578.38 814.15l-4.64-14.27h9.27z" fill="#3a414a"/><path d="M-578.38 818.92l-6.67-20.5h13.33zm-2.6-17.56l2.6 8 2.6-8z" stroke="#3a414a" stroke-width=".05" fill="#3a414a"/><use xlink:href="#p" transform="matrix(1,0,0,1,-747.2985295497191,663.9744935753182) translate(37.901050347222224 23.680555555555557)"/><use xlink:href="#b" transform="matrix(1,0,0,1,-747.2985295497191,663.9744935753182) translate(122.96723958333334 23.680555555555557)"/><use xlink:href="#c" transform="matrix(1,0,0,1,-747.2985295497191,663.9744935753182) translate(158.07032118055557 23.680555555555557)"/><use xlink:href="#d" transform="matrix(1,0,0,1,-747.2985295497191,663.9744935753182) translate(225.5073871527778 23.680555555555557)"/><use xlink:href="#e" transform="matrix(1,0,0,1,-747.2985295497191,663.9744935753182) translate(0.0049999999999954525 59.17274305555556)"/><use xlink:href="#q" transform="matrix(1,0,0,1,-747.2985295497191,663.9744935753182) translate(99.96702256944444 59.17274305555556)"/><path d="M-576.9 478.38h-2.96V391.2h2.95zm0-116.75h-2.96v-71.7h2.95z" stroke="#3a414a" stroke-width=".05" fill="#3a414a"/><path d="M-576.9 289.97h-2.96v-1.55h2.95z" fill="#3a414a"/><path stroke="#3a414a" stroke-width=".05" fill="#3a414a"/><path d="M-578.38 494.15l-4.64-14.27h9.27z" fill="#3a414a"/><path d="M-578.38 498.92l-6.67-20.52h13.33zm-2.6-17.56l2.6 8 2.6-8z" stroke="#3a414a" stroke-width=".05" fill="#3a414a"/><use xlink:href="#r" transform="matrix(1,0,0,1,-664.4822318066635,361.6354125361101) translate(0.0049999999999954525 23.680555555555557)"/><path d="M-1085.85 286.6l12.96 8.87 12.8 8 12.63 7.17 12.54 6.45 12.47 5.75 12.43 5.12 12.43 4.52 8.23 2.6h-9.68l-12.02-4.37h-.02v-.02h-.02l-12.5-5.14h-.02l-.02-.02-12.53-5.8h-.04v-.02l-12.6-6.47h-.04v-.02h-.02l-12.7-7.22h-.04v-.02l-12.84-8.02h-.02v-.02h-.02l-13.02-8.92h-.02V289h-.02v-.02l-6.72-5 1.77-2.38zm442.4-22.32l-22.4 14.44h-.02v.02h-.02l-22.47 13.2h-.02v.02h-.02v.02l-21.38 11.37h-.02v.02h-.04l-20.35 9.77h-.04v.02h-.02l-19.42 8.34h-.04v.02h-.02l-18.55 7.05h-.02v.02h-.02l-17.76 5.9h-.02v.02h-.04l-2 .58h-10.7l11.85-3.4 17.7-5.9 18.48-7.03 19.36-8.3 20.3-9.74 21.32-11.34 22.43-13.18 22.35-14.42z" stroke="#3a414a" stroke-width=".05" fill="#3a414a"/><path d="M-643.06 262.12l.9 1.32-1.33.86-1.6-2.48 1.4-.9z" fill="#3a414a"/><path stroke="#3a414a" stroke-width=".05" fill="#3a414a"/><path d="M-1091.73 278.2l-5.72 7.3-8.37-12.43z" fill="#3a414a"/><path d="M-1089.32 277.52l-8.22 10.5-12.04-17.9zm-8.04 5.48l3.2-4.1-7.9-2.9z" stroke="#3a414a" stroke-width=".05" fill="#3a414a"/><use xlink:href="#s" transform="matrix(1,0,0,1,-1029.4006531800705,335.10300137076564) translate(0.0049999999999954525 23.680555555555557)"/><use xlink:href="#t" transform="matrix(1,0,0,1,-1029.4006531800705,335.10300137076564) translate(89.09354166666668 23.680555555555557)"/><use xlink:href="#u" transform="matrix(1,0,0,1,-1029.4006531800705,335.10300137076564) translate(185.97613715277782 23.680555555555557)"/><path d="M-968.82 753.32l18 15.33 19.7 15.42 21.32 15.3 22.72 14.9 23.7 14.15 24.03 13.03 23.62 11.56 22.4 9.83 20.47 7.98 18.1 6.2 15.57 4.6 13.14 3.3 10.92 2.27 9.05 1.48 7.48.9 6.2.5 5.16.18 4.33-.02 3.65-.16 3.1-.28 2.66-.35 2.3-.4 1.98-.43 1.73-.45 1.52-.47 1.35-.48.24-.1 1.12 2.74-.28.12h-.04v.02l-1.42.5h-.04l-.02.02-1.6.5h-.04l-1.8.47h-.04v.02h-.02l-2.05.45h-.06l-2.34.42h-.06l-2.72.37h-.06l-3.17.28h-.04l-3.73.18h-.06l-4.38.02h-.06l-5.22-.2h-.06l-6.26-.5h-.06l-7.54-.9h-.06l-9.1-1.5h-.06l-11-2.3h-.04l-13.2-3.3v-.02h-.04l-15.64-4.64h-.06v-.02l-18.16-6.2h-.02v-.02h-.04l-20.53-8h-.02v-.02h-.04l-22.44-9.86h-.04v-.02h-.02l-23.68-11.6h-.04v-.02l-24.1-13.06h-.02l-.02-.02h-.02l-23.74-14.2h-.02v-.02h-.02l-22.78-14.94h-.02v-.02h-.02l-21.4-15.35v-.02h-.04l-19.75-15.47h-.02v-.04h-.02l-18.04-15.38h-.02v-.02h-.02v-.02l-7.53-6.98h4.34zm-197.86-455.07l1.13 17.46 2.76 26.06 4.8 32.37 6.76 35.32 8.35 35.6 9.6 34.35 10.48 32.3 11.12 29.93 11.57 27.55 11.88 25.24 12.06 23.1 12.2 21.13 5.9 9.3h-3.48l-4.92-7.75v-.02h-.02v-.02l-12.24-21.2v-.02h-.02v-.02l-12.1-23.16v-.02h-.02v-.04l-11.9-25.3h-.02v-.04l-11.6-27.6v-.02h-.02v-.04l-11.16-30v-.04h-.02v-.02l-10.5-32.35v-.04h-.02v-.02l-9.6-34.4v-.06h-.02l-8.36-35.68v-.06h-.02l-6.75-35.38v-.06l-4.8-32.44v-.06h-.02l-2.77-26.1v-.06l-1.13-17.53v-.04l-.2-8.4 2.96-.07z" stroke="#3a414a" stroke-width=".05" fill="#3a414a"/><path d="M-1166.87 289.93l-2.95.07-.04-1.57h2.95z" fill="#3a414a"/><path stroke="#3a414a" stroke-width=".05" fill="#3a414a"/><path d="M-660.07 891.17l-7-6.1 12.88-7.7z" fill="#3a414a"/><path d="M-659.5 893.62l-10.06-8.76 18.5-11.1zm-5.06-8.32l3.93 3.43 3.3-7.76z" stroke="#3a414a" stroke-width=".05" fill="#3a414a"/><use xlink:href="#a" transform="matrix(1,0,0,1,-1192.725257245241,647.9583643685818) translate(45.10428385416667 23.680555555555557)"/><use xlink:href="#b" transform="matrix(1,0,0,1,-1192.725257245241,647.9583643685818) translate(115.7640060763889 23.680555555555557)"/><use xlink:href="#c" transform="matrix(1,0,0,1,-1192.725257245241,647.9583643685818) translate(150.86708767361114 23.680555555555557)"/><use xlink:href="#d" transform="matrix(1,0,0,1,-1192.725257245241,647.9583643685818) translate(218.30415364583337 23.680555555555557)"/><use xlink:href="#e" transform="matrix(1,0,0,1,-1192.725257245241,647.9583643685818) translate(0.0049999999999954525 59.17274305555556)"/><use xlink:href="#f" transform="matrix(1,0,0,1,-1192.725257245241,647.9583643685818) translate(99.96702256944444 59.17274305555556)"/><use xlink:href="#g" transform="matrix(1,0,0,1,-1192.725257245241,647.9583643685818) translate(168.91993055555557 94.66493055555556)"/><path d="M-1064.57-68.47l-17.5 27.6-16.76 29-15.5 29.67-13.76 29.2-11.52 27.4-9.08 24.36-6.67 20.5-4.6 16.44-3.02 12.77-1.86 9.75-1.1 7.4-.6 5.65-.27 4.34-.05 1.93-2.95-.06.05-1.95v-.06l.28-4.4V171l.6-5.72v-.02h.02v-.04l1.1-7.47v-.02h.02v-.02l1.88-9.8v-.08l3.04-12.83v-.06l4.64-16.52v-.04h.02v-.02l6.7-20.54v-.06l9.1-24.42v-.02h.02v-.02l11.56-27.48v-.02h.02v-.02l13.8-29.27v-.04l15.55-29.72v-.02h.02v-.02l16.78-29.08v-.02h.02v-.02l17.55-27.65v-.02h.02v-.02h.02l3.58-5.17h3.6zm393.05-213.4l-8.68.5-16.82 1.7-21.43 3.07-26.42 4.92-30.75 7.06-32.94 9.02-32.17 10.25-28.93 10.58-24.5 10.13-20.05 9.3-16.13 8.3-12.88 7.33-10.34 6.46-8.32 5.7-6.75 5.07-5.53 4.5-4.54 4.05-3.77 3.65-10.82 11.23-16.8 18.68h-3.9l.83-1v-.02h.02v-.04l17.66-19.6v-.02h.02v-.02h.02l10.86-11.27v-.02h.02v-.02l3.82-3.7h.02v-.02h.02l4.6-4.08v-.02h.02v-.02h.02l5.57-4.55v-.02h.04l6.8-5.1v-.02h.02v-.02h.02l8.37-5.75h.04v-.02h.02l10.38-6.5h.02v-.02h.02l.02-.02 12.94-7.37h.02v-.02h.04l16.17-8.34h.04v-.02l20.1-9.3v-.02h.06l24.56-10.17v-.02h.06l28.98-10.6h.02v-.02h.04l32.23-10.3h.04l33-9.04h.06l30.82-7.08h.06l26.5-4.94h.04l21.5-3.1h.04l16.9-1.7h.04l8.72-.5z" stroke="#3a414a" stroke-width=".05" fill="#3a414a"/><path d="M-1166.88 177.5l-.03 1.5h-2.96l.03-1.57z" fill="#3a414a"/><path stroke="#3a414a" stroke-width=".05" fill="#3a414a"/><path d="M-655.85-283.57l-14.2 4.85-.14-9.27z" fill="#3a414a"/><path d="M-651.08-283.64l-20.4 6.97-.2-13.33zm-17.52 2.86l7.97-2.72-8.05-2.5z" stroke="#3a414a" stroke-width=".05" fill="#3a414a"/><use xlink:href="#v" transform="matrix(1,0,0,1,-1254.7026232813741,-140.36364131325058) translate(32.48818142361108 23.680555555555557)"/><use xlink:href="#w" transform="matrix(1,0,0,1,-1254.7026232813741,-140.36364131325058) translate(156.51270399305554 23.680555555555557)"/><use xlink:href="#x" transform="matrix(1,0,0,1,-1254.7026232813741,-140.36364131325058) translate(239.16786892361108 23.680555555555557)"/><use xlink:href="#y" transform="matrix(1,0,0,1,-1254.7026232813741,-140.36364131325058) translate(275.46452690972217 23.680555555555557)"/><use xlink:href="#z" transform="matrix(1,0,0,1,-1254.7026232813741,-140.36364131325058) translate(319.04200086805554 23.680555555555557)"/><use xlink:href="#A" transform="matrix(1,0,0,1,-1254.7026232813741,-140.36364131325058) translate(0.0049999999999954525 59.17274305555556)"/><use xlink:href="#B" transform="matrix(1,0,0,1,-1254.7026232813741,-140.36364131325058) translate(6.879999999999996 59.17274305555556)"/><use xlink:href="#C" transform="matrix(1,0,0,1,-1254.7026232813741,-140.36364131325058) translate(51.17361979166667 59.17274305555556)"/><use xlink:href="#D" transform="matrix(1,0,0,1,-1254.7026232813741,-140.36364131325058) translate(151.33855034722222 59.17274305555556)"/><use xlink:href="#E" transform="matrix(1,0,0,1,-1254.7026232813741,-140.36364131325058) translate(180.62891493055557 59.17274305555556)"/><use xlink:href="#F" transform="matrix(1,0,0,1,-1254.7026232813741,-140.36364131325058) translate(224.92253472222222 59.17274305555556)"/><use xlink:href="#D" transform="matrix(1,0,0,1,-1254.7026232813741,-140.36364131325058) translate(245.71463541666668 59.17274305555556)"/><use xlink:href="#G" transform="matrix(1,0,0,1,-1254.7026232813741,-140.36364131325058) translate(275.005 59.17274305555556)"/><use xlink:href="#H" transform="matrix(1,0,0,1,-1254.7026232813741,-140.36364131325058) translate(347.7176736111111 59.17274305555556)"/><path d="M-1051.6 152.95l-6.18 3.4-7.5 4.56-6.56 4.36-5.73 4.17-5.02 3.98-4.4 3.82-3.9 3.66-3.45 3.52-3.05 3.4-2.7 3.27-2.4 3.17-2.14 3.07-1.12 1.77-2.5-1.58 1.14-1.8.02-.02v-.02l2.2-3.13v-.02h.02v-.02l2.45-3.22v-.02h.02v-.02l2.75-3.33v-.02h.02v-.02h.02v-.02l3.08-3.43h.02v-.02h.02v-.02l3.5-3.56v-.02h.02v-.02l3.95-3.7v-.02h.02V175h.02l4.46-3.86.02-.02h.02v-.02l5.08-4.03v-.02h.04v-.02l5.8-4.2v-.02h.02v-.02h.02l6.6-4.4h.04v-.02l7.58-4.6h.04v-.02l7.65-4.2zm375.5-15.42v.02h.04l4.2 2.8h.02v.02h.02l3.75 2.73h.02v.02h.02l3.38 2.67h.02v.02h.02v.02l3.02 2.6v.02h.02l.02.02 2.73 2.56v.02h.02v.02l2.48 2.5v.02h.02v.02h.02v.02l2.23 2.47v.02h.02v.04l2.04 2.44v.02h.02v.02h.02l1.83 2.43h.02v.02h.02v.02l1.68 2.4v.02h.02v.02l1.53 2.4v.02h.02v.02l1.37 2.38v.02h.02v.02l1.25 2.38v.04h.02v.02l1.12 2.38v.04h.02l1 2.4v.02h.02v.04l.9 2.4v.02l.02.02v.02l.2.63-2.8.9-.2-.58-.87-2.35-1-2.33-1.08-2.33-1.22-2.3-1.34-2.33-1.48-2.32-1.63-2.35-1.8-2.37-2-2.4-2.18-2.42-2.42-2.47-2.68-2.5-2.98-2.58-3.32-2.63-3.7-2.68-4.14-2.76-.57-.34v-3.45z" stroke="#3a414a" stroke-width=".05" fill="#3a414a"/><path d="M-1105.74 199.04l-1.1 1.7-1.95-2.4.57-.88z" fill="#3a414a"/><path stroke="#3a414a" stroke-width=".05" fill="#3a414a"/><path d="M-639.74 194.76l-6.85-13.35 9.17-1.46z" fill="#3a414a"/><path d="M-638.98 199.47l-9.85-19.2 13.17-2.1zm-5.37-16.92l3.85 7.5 1.3-8.33z" stroke="#3a414a" stroke-width=".05" fill="#3a414a"/><g><use xlink:href="#v" transform="matrix(1,0,0,1,-1051.5850038123015,55.49156727753057) translate(2.666675347222224 23.680555555555557)"/><use xlink:href="#w" transform="matrix(1,0,0,1,-1051.5850038123015,55.49156727753057) translate(126.69119791666667 23.680555555555557)"/><use xlink:href="#x" transform="matrix(1,0,0,1,-1051.5850038123015,55.49156727753057) translate(209.34636284722222 23.680555555555557)"/><use xlink:href="#y" transform="matrix(1,0,0,1,-1051.5850038123015,55.49156727753057) translate(245.64302083333334 23.680555555555557)"/><use xlink:href="#z" transform="matrix(1,0,0,1,-1051.5850038123015,55.49156727753057) translate(289.2204947916667 23.680555555555557)"/><use xlink:href="#A" transform="matrix(1,0,0,1,-1051.5850038123015,55.49156727753057) translate(0.0049999999999954525 59.17274305555556)"/><use xlink:href="#I" transform="matrix(1,0,0,1,-1051.5850038123015,55.49156727753057) translate(6.879999999999996 59.17274305555556)"/><use xlink:href="#C" transform="matrix(1,0,0,1,-1051.5850038123015,55.49156727753057) translate(56.89085069444444 59.17274305555556)"/><use xlink:href="#D" transform="matrix(1,0,0,1,-1051.5850038123015,55.49156727753057) translate(157.05578125 59.17274305555556)"/><use xlink:href="#J" transform="matrix(1,0,0,1,-1051.5850038123015,55.49156727753057) translate(186.34614583333334 59.17274305555556)"/><use xlink:href="#K" transform="matrix(1,0,0,1,-1051.5850038123015,55.49156727753057) translate(289.8650260416667 59.17274305555556)"/><use xlink:href="#L" transform="matrix(1,0,0,1,-1051.5850038123015,55.49156727753057) translate(149.46463541666668 94.66493055555556)"/></g><path d="M-104.22-111.38v.02h.02v.02h.02L-85.34-90h.02v.04h.02l19.4 23.88v.02h.02v.02l20.1 26.97v.04h.02v.02l20.98 30.77v.02h.02v.02l22.13 35.58v.02h.02v.02l23.62 41.8v.02h.02v.04l25.7 50.26v.04h.02v.02l28.03 61.08-2.7 1.23-28-61.06-25.66-50.2-23.6-41.76-22.08-35.5-20.93-30.73-20.05-26.92-19.35-23.82-18.8-21.26-5.3-5.5h4.1zm-354.73-172.1h.04l25.2 2.34h.06l23.86 3.23h.06l22.72 4.05h.06l21.74 4.83h.06l20.9 5.57h.04l20.2 6.3h.04v.02l19.57 7h.04v.02h.02l19.06 7.73h.02v.02h.04l18.63 8.5h.04v.02h.02l18.3 9.3h.04v.02l18.06 10.1v.02h.04v.02l17.87 11.04h.02v.02h.02l17.76 12.04h.02v.02h.02l15.28 11.3h-4.96l-12.04-8.9-17.7-12-17.8-11-18-10.1-18.24-9.24-18.58-8.47-19-7.7-19.5-7-20.12-6.26-20.83-5.55-21.68-4.8-22.66-4.04-23.8-3.2-25.13-2.33-26.1-1.32.16-2.94z" stroke="#3a414a" stroke-width=".05" fill="#3a414a"/><path d="M75.48 182.15l-1.07.35-1.67.73-.64-1.38 2.68-1.23z" fill="#3a414a"/><path stroke="#3a414a" stroke-width=".05" fill="#3a414a"/><path d="M-486.72-278.7l-14.2-4.87 14.34-4.4z" fill="#3a414a"/><path d="M-485.28-276.66l-20.4-6.98 20.6-6.35zm-10.86-6.83l7.97 2.74.1-5.2z" stroke="#3a414a" stroke-width=".05" fill="#3a414a"/><g><use xlink:href="#v" transform="matrix(1,0,0,1,-358.9676445091204,-179.93002598973752) translate(32.48818142361108 23.680555555555557)"/><use xlink:href="#w" transform="matrix(1,0,0,1,-358.9676445091204,-179.93002598973752) translate(156.51270399305554 23.680555555555557)"/><use xlink:href="#x" transform="matrix(1,0,0,1,-358.9676445091204,-179.93002598973752) translate(239.16786892361108 23.680555555555557)"/><use xlink:href="#y" transform="matrix(1,0,0,1,-358.9676445091204,-179.93002598973752) translate(275.46452690972217 23.680555555555557)"/><use xlink:href="#z" transform="matrix(1,0,0,1,-358.9676445091204,-179.93002598973752) translate(319.04200086805554 23.680555555555557)"/><use xlink:href="#A" transform="matrix(1,0,0,1,-358.9676445091204,-179.93002598973752) translate(0.0049999999999954525 59.17274305555556)"/><use xlink:href="#B" transform="matrix(1,0,0,1,-358.9676445091204,-179.93002598973752) translate(6.879999999999996 59.17274305555556)"/><use xlink:href="#C" transform="matrix(1,0,0,1,-358.9676445091204,-179.93002598973752) translate(51.17361979166667 59.17274305555556)"/><use xlink:href="#D" transform="matrix(1,0,0,1,-358.9676445091204,-179.93002598973752) translate(151.33855034722222 59.17274305555556)"/><use xlink:href="#E" transform="matrix(1,0,0,1,-358.9676445091204,-179.93002598973752) translate(180.62891493055557 59.17274305555556)"/><use xlink:href="#F" transform="matrix(1,0,0,1,-358.9676445091204,-179.93002598973752) translate(224.92253472222222 59.17274305555556)"/><use xlink:href="#D" transform="matrix(1,0,0,1,-358.9676445091204,-179.93002598973752) translate(245.71463541666668 59.17274305555556)"/><use xlink:href="#G" transform="matrix(1,0,0,1,-358.9676445091204,-179.93002598973752) translate(275.005 59.17274305555556)"/><use xlink:href="#H" transform="matrix(1,0,0,1,-358.9676445091204,-179.93002598973752) translate(347.7176736111111 59.17274305555556)"/></g><path d="M-456.75 131.1l-.4.55v.02h-.02v.02h-.02l-3.73 4.8-.02.02v.02h-.02l-3.78 4.45h-.02v.02h-.02v.02l-3.8 4.12h-.02v.02h-.02v.02l-3.86 3.83v.02h-.02l-.02.02-3.9 3.56v.02h-.02l-.02.02-3.94 3.3v.02h-.04v.02l-4 3.07h-.02v.02h-.02l-4.06 2.87h-.04v.02l-4.13 2.66h-.02v.02h-.02l-4.2 2.48h-.02v.02h-.02l-4.3 2.28v.02h-.04l-4.4 2.1v.02h-.04v.02l-4.5 1.92h-.02v.02h-.02l-4.63 1.76h-.02v.02h-.02l-4.77 1.6h-.04l-4.93 1.42h-.04l-5.1 1.25h-.06l-5.3 1.06h-.06l-5.53.86h-.06l-4.3.5-.32-2.94 4.26-.48 5.47-.85 5.24-1.05 5.05-1.22 4.86-1.4 4.7-1.56 4.57-1.73 4.44-1.9 4.33-2.07 4.23-2.25 4.14-2.44 4.06-2.62 4-2.82 3.95-3.04 3.9-3.27 3.84-3.5 3.8-3.8 3.78-4.07 3.74-4.4 3.7-4.75 2.8-3.88zm35.88-89.22v.06l-2.44 11.88h-.02v.06l-2.73 10.96v.04h-.02v.02l-2.96 10.08v.04h-.02v.02l-2.96 8.7h-3.14l.16-.42 3.13-9.2 2.94-10.02 2.7-10.9 2.42-11.82 1.83-11.36h3zm-82.86-278.74h.02v.02h.02l2.8 1.45h.02v.02h.04v.02l2.87 1.62h.02v.02h.02l2.92 1.84h.02v.02h.02l.02.02 3 2.05v.02h.02v.02h.02l3.1 2.3v.02h.02v.02h.02l3.18 2.6v.02h.04v.02l3.28 2.9v.02h.02v.02h.02l3.4 3.28v.02h.02v.02l3.5 3.68h.02v.02h.02v.02h.02l3.62 4.15h.02v.04h.02l3.75 4.66v.02h.02v.02l3.9 5.27v.02h.02v.02l4 5.95h.02v.02h.02v.02l4.14 6.7v.04h.02v.02l4.24 7.57v.02h.02v.02l4.32 8.54v.02l.02.02 4.35 9.6v.04l4.33 10.7v.02l.02.02v.02l4.23 11.87v.04h.02l4.04 13.04v.06l3.75 14.14v.06l3.33 15.12v.06l2.82 15.9v.06l1.4 10.32h-3l-1.3-9.9-2.8-15.84-3.32-15.06-3.72-14.08-4-12.97-4.2-11.8-4.3-10.64-4.33-9.52-4.28-8.47-4.2-7.52-4.1-6.66-3.98-5.9-3.85-5.22-3.7-4.62-3.6-4.1-3.45-3.62-3.34-3.22-3.23-2.87-3.13-2.55-3.03-2.27-2.96-2.02-2.88-1.8-2.8-1.58-2.76-1.4-1.18-.56 1.24-2.68z" stroke="#3a414a" stroke-width=".05" fill="#3a414a"/><path d="M-545.3 181.14l-4.7-1.12-.03-.4 4.5-.5z" fill="#3a414a"/><path stroke="#3a414a" stroke-width=".05" fill="#3a414a"/><path d="M-508.2-232.03l-12.4-8.44 14.98-.46z" fill="#3a414a"/><path d="M-507.37-229.66l-17.82-12.15 21.57-.66zm-8.66-9.48l6.97 4.75 1.46-5z" stroke="#3a414a" stroke-width=".05" fill="#3a414a"/><g><use xlink:href="#s" transform="matrix(1,0,0,1,-635.0103833150554,-70.54302438711863) translate(131.45953559027777 23.680555555555557)"/><use xlink:href="#M" transform="matrix(1,0,0,1,-635.0103833150554,-70.54302438711863) translate(220.54807725694445 23.680555555555557)"/><use xlink:href="#s" transform="matrix(1,0,0,1,-635.0103833150554,-70.54302438711863) translate(60.27463975694445 59.17274305555556)"/><use xlink:href="#N" transform="matrix(1,0,0,1,-635.0103833150554,-70.54302438711863) translate(149.36318142361114 59.17274305555556)"/><use xlink:href="#b" transform="matrix(1,0,0,1,-635.0103833150554,-70.54302438711863) translate(281.86209635416674 59.17274305555556)"/><use xlink:href="#O" transform="matrix(1,0,0,1,-635.0103833150554,-70.54302438711863) translate(316.9651779513889 59.17274305555556)"/><use xlink:href="#s" transform="matrix(1,0,0,1,-635.0103833150554,-70.54302438711863) translate(0.0049999999999954525 94.66493055555556)"/><use xlink:href="#N" transform="matrix(1,0,0,1,-635.0103833150554,-70.54302438711863) translate(89.09354166666668 94.66493055555556)"/><use xlink:href="#b" transform="matrix(1,0,0,1,-635.0103833150554,-70.54302438711863) translate(221.59245659722225 94.66493055555556)"/><use xlink:href="#P" transform="matrix(1,0,0,1,-635.0103833150554,-70.54302438711863) translate(256.69553819444445 94.66493055555556)"/><use xlink:href="#Q" transform="matrix(1,0,0,1,-635.0103833150554,-70.54302438711863) translate(372.29341145833337 94.66493055555556)"/></g><path d="M-674.57 87.06l4.96 9.32 5.24 8.94 5.54 8.58 5.8 8.23 6.1 7.9 6.37 7.57 6.64 7.28 6.93 6.97 7.23 6.7 7.55 6.42.78.6-1.8 2.32-.8-.63h-.02v-.02h-.02v-.02h-.02l-7.6-6.45v-.02h-.02v-.02h-.02L-629 154v-.02h-.02v-.02h-.02l-6.98-7.03h-.02v-.02h-.02l-6.7-7.33v-.02h-.02v-.02l-6.42-7.63v-.02h-.02v-.02h-.02l-6.13-7.96v-.02h-.02v-.02l-5.85-8.3h-.02v-.04l-5.58-8.63v-.02h-.02v-.04l-5.3-9v-.02h-.02v-.02l-4.98-9.38v-.02h-.02v-.02l-1.03-2.15V79.4zM-695-120.04l-2.9 12.67-2.37 13-1.85 13.26-1.3 13.4-.75 13.43-.18 13.4.37 13.25.92 13.05 1.44 12.78 1.94 12.48 2.4 12.1 2.84 11.73 3.25 11.33 3.23 9.66h-3.1l-2.92-8.76v-.06l-3.28-11.4v-.02l-.02-.02-2.86-11.8v-.04l-2.42-12.18v-.06l-1.96-12.53v-.04L-706-14.28v-.04l-.92-13.13v-.04l-.38-13.33v-.06l.18-13.45v-.04l.75-13.5v-.06l1.32-13.46v-.06l1.87-13.32v-.06l2.4-13.07v-.06l2.9-12.73v-.06l1.58-5.77h3.06zm65.1-118.3l-4.14 3.95-5.22 5.42-5.23 5.9-5.2 6.4-5.2 6.97-5.15 7.52-5.08 8.13-1.37 2.4h-3.4l2.22-3.9h.02v-.04l5.12-8.17v-.02h.02v-.02l5.2-7.6h.02v-.04l5.25-7v-.02h.02v-.02h.02l5.25-6.47v-.02h.02l.02-.02 5.25-5.94h.02v-.02h.02v-.02l5.26-5.46v-.02h.02v-.02h.02l4.17-3.97z" stroke="#3a414a" stroke-width=".05" fill="#3a414a"/><path d="M-629.44-240.12l.82.57-1.3 1.24-2.04-2.14 1-.96z" fill="#3a414a"/><path stroke="#3a414a" stroke-width=".05" fill="#3a414a"/><path d="M-599.66 176.1l-14.22-4.76 5.5-7.45z" fill="#3a414a"/><path d="M-595.83 178.95l-20.45-6.85 7.94-10.72zm-15.66-8.36l8 2.67-4.9-6.87z" stroke="#3a414a" stroke-width=".05" fill="#3a414a"/><g><use xlink:href="#R" transform="matrix(1,0,0,1,-822.668653614199,-191.63878080311017) translate(0.0049999999999954525 23.680555555555557)"/><use xlink:href="#b" transform="matrix(1,0,0,1,-822.668653614199,-191.63878080311017) translate(84.46246527777778 23.680555555555557)"/><use xlink:href="#y" transform="matrix(1,0,0,1,-822.668653614199,-191.63878080311017) translate(119.56554687500001 23.680555555555557)"/><use xlink:href="#S" transform="matrix(1,0,0,1,-822.668653614199,-191.63878080311017) translate(163.14302083333334 23.680555555555557)"/><use xlink:href="#T" transform="matrix(1,0,0,1,-822.668653614199,-191.63878080311017) translate(19.23948350694444 59.17274305555556)"/><use xlink:href="#U" transform="matrix(1,0,0,1,-822.668653614199,-191.63878080311017) translate(52.74317274305555 59.17274305555556)"/><use xlink:href="#V" transform="matrix(1,0,0,1,-822.668653614199,-191.63878080311017) translate(109.58128038194444 59.17274305555556)"/><use xlink:href="#D" transform="matrix(1,0,0,1,-822.668653614199,-191.63878080311017) translate(190.88770399305554 59.17274305555556)"/><use xlink:href="#W" transform="matrix(1,0,0,1,-822.668653614199,-191.63878080311017) translate(220.1780685763889 59.17274305555556)"/></g><path d="M-49.3 153.1v.02h.06v.02l29.77 14.44h.04v.02h.02l65.76 35.7-1.4 2.58-65.75-35.66-29.7-14.4-16.13-7h7.42zm-358.1-.08l-21.5 8.5-20.3 9.04-19.06 9.44-17.74 9.75-9.54 5.77-1.53-2.53 9.57-5.8h.04v-.02l17.8-9.78h.04v-.02h.02l19.1-9.48h.04v-.02h.02l20.37-9.06h.02v-.02h.04l21.56-8.54h.04v-.02l4.12-1.43h8.98z" stroke="#3a414a" stroke-width=".05" fill="#3a414a"/><path d="M47.77 204.06l-.5.7-1.02 1.83-1.34-.74 1.42-2.6z" fill="#3a414a"/><path stroke="#3a414a" stroke-width=".05" fill="#3a414a"/><path d="M-495.08 198.97l-14.53 3.73 9.55-11.55z" fill="#3a414a"/><path d="M-492.75 199.9l-20.9 5.36 13.76-16.62zm-12.83.25l8.16-2.1-2.8-4.4z" stroke="#3a414a" stroke-width=".05" fill="#3a414a"/><g><use xlink:href="#v" transform="matrix(1,0,0,1,-456.7503843983407,83.74431247310122) translate(39.88238715277777 23.680555555555557)"/><use xlink:href="#w" transform="matrix(1,0,0,1,-456.7503843983407,83.74431247310122) translate(163.90690972222222 23.680555555555557)"/><use xlink:href="#x" transform="matrix(1,0,0,1,-456.7503843983407,83.74431247310122) translate(246.56207465277777 23.680555555555557)"/><use xlink:href="#y" transform="matrix(1,0,0,1,-456.7503843983407,83.74431247310122) translate(282.8587326388889 23.680555555555557)"/><use xlink:href="#X" transform="matrix(1,0,0,1,-456.7503843983407,83.74431247310122) translate(326.4362065972222 23.680555555555557)"/><use xlink:href="#Y" transform="matrix(1,0,0,1,-456.7503843983407,83.74431247310122) translate(0.0049999999999954525 59.17274305555556)"/><use xlink:href="#C" transform="matrix(1,0,0,1,-456.7503843983407,83.74431247310122) translate(50.01585069444444 59.17274305555556)"/><use xlink:href="#D" transform="matrix(1,0,0,1,-456.7503843983407,83.74431247310122) translate(150.18078125 59.17274305555556)"/><use xlink:href="#J" transform="matrix(1,0,0,1,-456.7503843983407,83.74431247310122) translate(179.47114583333334 59.17274305555556)"/><use xlink:href="#Z" transform="matrix(1,0,0,1,-456.7503843983407,83.74431247310122) translate(282.9900260416667 59.17274305555556)"/><use xlink:href="#L" transform="matrix(1,0,0,1,-456.7503843983407,83.74431247310122) translate(373.35569444444445 59.17274305555556)"/></g><path d="M44.03 289.67l-4.45 2.3h-.02v.02h-.02l-7.7 3.6h-.06l-9.5 3.96h-.02v.02h-.02l-11.84 4.35h-.04v.02h-.02l-14.86 4.77h-.04v.02h-.02l-18.8 5.17v.02h-.06l-23.8 5.5h-.06l-29.9 5.6h-.06l-35.44 5.12v-3l35-5.03 29.82-5.56 23.74-5.48 18.75-5.16 14.8-4.75 11.78-4.32 9.43-3.93 7.65-3.56 4.42-2.3zm-555-25.8l.5 1.48.6 1.5.66 1.5.75 1.54.84 1.55.95 1.58 1.07 1.62 1.2 1.67 1.35 1.7 1.52 1.78 1.7 1.84 1.95 1.9 2.2 2 2.52 2.1 2.9 2.2 3.3 2.32 3.86 2.46 4.5 2.6 5.27 2.78 6.24 2.96 7.46 3.16 9 3.36 10.9 3.57 13.4 3.77 16.52 3.92 12.68 2.45v3l-13.27-2.57h-.04l-16.6-3.94-.02-.02h-.04l-13.44-3.8h-.06l-10.98-3.6h-.02v-.02h-.04l-9.04-3.4h-.06v-.02l-7.5-3.18h-.04v-.02h-.02l-6.3-3h-.06l-5.34-2.82h-.02v-.02h-.04l-4.54-2.65h-.02v-.02h-.02l-3.92-2.5h-.02v-.02h-.02l-3.38-2.36h-.02v-.02h-.02v-.02l-2.94-2.24h-.02v-.02h-.02l-2.57-2.15v-.02h-.04v-.02l-2.25-2.04v-.02h-.02l-.02-.02-1.98-1.96-.02-.02h-.02v-.02l-1.76-1.9h-.02v-.02h-.02l-1.57-1.83v-.02h-.02v-.02l-1.4-1.76v-.02h-.02v-.02l-1.25-1.73v-.02h-.02v-.02l-1.1-1.67h-.02v-.02h-.02v-.02l-1-1.64v-.04h-.02l-.88-1.62v-.02l-.02-.02v-.02l-.8-1.58v-.06l-.7-1.56V268h-.02v-.04l-.62-1.56v-.04h-.02l-.53-1.56v-.02h-.02v-.04l-.48-1.64 2.83-.84z" stroke="#3a414a" stroke-width=".05" fill="#3a414a"/><path d="M-511.43 262.36l-2.86.72.25-.4 1.86-3.32z" fill="#3a414a"/><path stroke="#3a414a" stroke-width=".05" fill="#3a414a"/><path d="M47.06 291.5l-4.93-7.85 14.54-3.67z" fill="#3a414a"/><path d="M46.9 294l-7.1-11.28 20.9-5.28zm-2.44-9.42l2.77 4.4 5.4-6.46z" stroke="#3a414a" stroke-width=".05" fill="#3a414a"/><g><use xlink:href="#s" transform="matrix(1,0,0,1,-397.09716377760714,304.23771221897925) translate(6.30708333333331 23.680555555555557)"/><use xlink:href="#aa" transform="matrix(1,0,0,1,-397.09716377760714,304.23771221897925) translate(95.395625 23.680555555555557)"/><use xlink:href="#ab" transform="matrix(1,0,0,1,-397.09716377760714,304.23771221897925) translate(178.89822916666668 23.680555555555557)"/><use xlink:href="#ac" transform="matrix(1,0,0,1,-397.09716377760714,304.23771221897925) translate(214.8726215277778 23.680555555555557)"/><use xlink:href="#ad" transform="matrix(1,0,0,1,-397.09716377760714,304.23771221897925) translate(0.0049999999999954525 59.17274305555556)"/><use xlink:href="#ae" transform="matrix(1,0,0,1,-397.09716377760714,304.23771221897925) translate(57.368281249999995 59.17274305555556)"/><use xlink:href="#af" transform="matrix(1,0,0,1,-397.09716377760714,304.23771221897925) translate(140.34571180555554 59.17274305555556)"/><use xlink:href="#ag" transform="matrix(1,0,0,1,-397.09716377760714,304.23771221897925) translate(199.18902777777777 59.17274305555556)"/></g><path d="M-793.55 596.9l.85 8.83 1.3 9.27 1.76 9.73 2.3 10.2 2.9 10.73 3.54 11.22 4.24 11.74 5.02 12.23 5.84 12.68 6.7 13.1 7.57 13.38 4.23 6.8v2.24h1.4l2.83 4.56 9.3 13.64 10.1 13.52 10.74 13.24 11.3 12.78 11.7 12.15 11.9 11.4 12 10.53 9.57 7.73-1.85 2.28-9.6-7.75h-.02v-.02h-.04L-680 812.5v-.02h-.02v-.02h-.02L-692 801.04V801h-.02V801h-.02l-11.74-12.2v-.02h-.02v-.02h-.02l-11.34-12.83v-.02h-.04l-10.8-13.3v-.02h-.02v-.02l-10.13-13.58v-.02h-.02v-.02l-9.35-13.7v-.02h-.02v-.02h-.02v-.02l-8.5-13.64v-.04h-.02l-7.6-13.46h-.02V708h-.02l-6.72-13.15v-.02h-.02v-.02l-5.87-12.75v-.02h-.02V682l-5.05-12.3v-.04h-.02l-4.27-11.8v-.06l-3.57-11.3v-.04h-.02l-2.9-10.78v-.06l-2.32-10.27v-.04h-.02l-1.78-9.8v-.06l-1.3-9.34v-.06l-.87-8.9v-.06l-.1-2.06h2.95zm170.2-313.92l-8.05 13.6v.04h-.02v.02l-11.6 17.83v.02h-.02v.02h-.02l-17.1 24v.02h-.02l-86.23 112.87-10.45 16.07-7.8 13.18-6.13 11.4-4.94 10.22-4.04 9.33-3.33 8.68-2.74 8.17-.44 1.5h-3.07l.68-2.35v-.04h.02v-.02l2.77-8.23v-.02h.02v-.02l3.36-8.74v-.04h.02v-.02l4.07-9.4V501l4.98-10.27v-.04h.02l6.16-11.48v-.02h.02v-.02l7.84-13.24v-.02h.02v-.02h.02l10.5-16.14v-.04h.02v-.02h.02v-.02l86.26-112.9 17.06-23.95 11.56-17.77 8.04-13.58z" stroke="#3a414a" stroke-width=".05" fill="#3a414a"/><path d="M-622.55 281.65l-.8 1.36-2.55-1.5.77-1.3z" fill="#3a414a"/><path stroke="#3a414a" stroke-width=".05" fill="#3a414a"/><path d="M-644.74 839.15l-14.2-4.8 5.53-7.44z" fill="#3a414a"/><path d="M-640.9 842l-20.45-6.9 7.96-10.7zm-15.65-8.4l7.98 2.7-4.87-6.88z" stroke="#3a414a" stroke-width=".05" fill="#3a414a"/><g><use xlink:href="#ah" transform="matrix(1,0,0,1,-880.6095188473608,529.9497580452675) translate(0.0049999999999954525 23.680555555555557)"/><use xlink:href="#ai" transform="matrix(1,0,0,1,-880.6095188473608,529.9497580452675) translate(31.75413194444444 59.17274305555556)"/></g><defs><path fill="#3a414a" d="M180 0v-1490h190c0 262 1 526-3 784 217-279 467-523 702-784h249L716-845 1319 0h-225L585-716 370-489V0H180" id="aj"/><path fill="#3a414a" d="M158 0v-1118h180V0H158zm91-1301c-68 0-125-53-125-119s57-119 125-119c69 0 126 53 126 119s-57 119-126 119" id="ak"/><path fill="#3a414a" d="M338-1490V0H158v-1490h180" id="al"/><path fill="#3a414a" d="M628 24c-324 0-524-230-524-574 0-343 198-582 503-582 237 0 487 146 487 559v75H286c9 234 145 362 343 362 132 0 231-58 273-172l174 48C1024-91 857 24 628 24zM287-650h624c-17-190-120-322-304-322-192 0-309 151-320 322" id="am"/><path fill="#3a414a" d="M577 24c-279 0-473-224-473-580 0-354 195-576 474-576 218 0 287 134 324 193h14v-551h180V0H922v-173h-20C865-111 790 24 577 24zm27-161c203 0 314-172 314-421 0-247-108-413-314-413-212 0-317 181-317 413 0 235 108 421 317 421" id="an"/><g id="a"><use transform="matrix(0.01193576388888889,0,0,0.01193576388888889,0,0)" xlink:href="#aj"/><use transform="matrix(0.01193576388888889,0,0,0.01193576388888889,16.805555555555554,0)" xlink:href="#ak"/><use transform="matrix(0.01193576388888889,0,0,0.01193576388888889,22.725694444444443,0)" xlink:href="#al"/><use transform="matrix(0.01193576388888889,0,0,0.01193576388888889,28.64583333333333,0)" xlink:href="#al"/><use transform="matrix(0.01193576388888889,0,0,0.01193576388888889,34.56597222222222,0)" xlink:href="#am"/><use transform="matrix(0.01193576388888889,0,0,0.01193576388888889,48.81727430555556,0)" xlink:href="#an"/></g><path fill="#3a414a" d="M677 24c-213 0-288-135-325-197h-20V0H158v-1490h180v551h14c37-59 106-193 324-193 279 0 474 222 474 576 0 356-194 580-473 580zm-27-161c209 0 317-186 317-421 0-232-105-413-317-413-206 0-314 166-314 413 0 249 111 421 314 421" id="ao"/><path fill="#3a414a" d="M140 405l46-156c120 36 205 19 263-150l32-93L54-1118h197c107 313 237 620 324 950 87-331 219-637 326-950h196L606 167c-68 178-176 259-334 259-64 0-113-12-132-21" id="ap"/><g id="b"><use transform="matrix(0.01193576388888889,0,0,0.01193576388888889,0,0)" xlink:href="#ao"/><use transform="matrix(0.01193576388888889,0,0,0.01193576388888889,14.490017361111112,0)" xlink:href="#ap"/></g><path fill="#3a414a" d="M613 24c-304 0-509-231-509-576 0-350 205-580 509-580 305 0 511 230 511 580 0 345-206 576-511 576zm0-161c226 0 329-195 329-415 0-222-103-419-329-419-223 0-326 196-326 419 0 220 103 415 326 415" id="aq"/><path fill="#3a414a" d="M598-1118v154H368v674c0 100 37 144 132 144 23 0 62-6 92-12L629-6c-37 13-88 20-134 20-193 0-307-107-307-290v-688H20v-154h168v-266h180v266h230" id="ar"/><path fill="#3a414a" d="M338-670V0H158v-1490h180v566c73-149 190-208 336-208 226 0 379 139 379 422V0H872v-695c0-172-96-275-252-275-161 0-282 109-282 300" id="as"/><path fill="#3a414a" d="M158 0v-1118h174v172h12c41-113 157-188 290-188 26 0 70 2 91 3v181c-11-2-60-10-108-10-161 0-279 109-279 260V0H158" id="at"/><g id="c"><use transform="matrix(0.01193576388888889,0,0,0.01193576388888889,0,0)" xlink:href="#aq"/><use transform="matrix(0.01193576388888889,0,0,0.01193576388888889,14.657118055555557,0)" xlink:href="#ar"/><use transform="matrix(0.01193576388888889,0,0,0.01193576388888889,22.654079861111114,0)" xlink:href="#as"/><use transform="matrix(0.01193576388888889,0,0,0.01193576388888889,37.10828993055556,0)" xlink:href="#am"/><use transform="matrix(0.01193576388888889,0,0,0.01193576388888889,51.35959201388889,0)" xlink:href="#at"/></g><path fill="#3a414a" d="M471 26C259 26 90-98 90-318c0-256 228-303 435-329 202-27 287-16 287-108 0-139-79-219-234-219-161 0-248 86-283 164l-173-57c86-203 278-265 451-265 150 0 419 46 419 395V0H815v-152h-12C765-73 660 26 471 26zm31-159c199 0 310-134 310-271v-155c-30 35-226 55-295 64-131 17-246 59-246 186 0 116 97 176 231 176" id="au"/><g id="d"><use transform="matrix(0.01193576388888889,0,0,0.01193576388888889,0,0)" xlink:href="#ar"/><use transform="matrix(0.01193576388888889,0,0,0.01193576388888889,7.996961805555556,0)" xlink:href="#as"/><use transform="matrix(0.01193576388888889,0,0,0.01193576388888889,22.451171875000004,0)" xlink:href="#at"/><use transform="matrix(0.01193576388888889,0,0,0.01193576388888889,31.247829861111114,0)" xlink:href="#am"/><use transform="matrix(0.01193576388888889,0,0,0.01193576388888889,45.73784722222223,0)" xlink:href="#au"/><use transform="matrix(0.01193576388888889,0,0,0.01193576388888889,59.46397569444445,0)" xlink:href="#an"/></g><path fill="#3a414a" d="M180 0v-1490h510c348 0 508 209 508 474 0 266-160 477-507 477H370V0H180zm190-706h312c236 0 327-133 327-310 0-176-91-307-329-307H370v617" id="av"/><path fill="#3a414a" d="M613 24c-304 0-509-231-509-576 0-350 205-580 509-580 216 0 392 114 453 309l-173 49c-33-115-133-197-280-197-223 0-326 196-326 419 0 220 103 415 326 415 150 0 252-85 285-206l172 49C1010-95 832 24 613 24" id="aw"/><path fill="#3a414a" d="M538 24C308 24 148-78 108-271l171-41c32 123 123 178 257 178 156 0 256-77 256-169 0-77-54-128-164-154l-186-44c-203-48-300-148-300-305 0-192 176-326 414-326 230 0 351 112 402 269l-163 42c-31-80-94-158-238-158-133 0-233 69-233 162 0 83 57 129 188 160l169 40c203 48 298 149 298 302 0 196-179 339-441 339" id="ax"/><g id="e"><use transform="matrix(0.01193576388888889,0,0,0.01193576388888889,0,0)" xlink:href="#av"/><use transform="matrix(0.01193576388888889,0,0,0.01193576388888889,15.611979166666668,0)" xlink:href="#at"/><use transform="matrix(0.01193576388888889,0,0,0.01193576388888889,24.40863715277778,0)" xlink:href="#aq"/><use transform="matrix(0.01193576388888889,0,0,0.01193576388888889,39.065755208333336,0)" xlink:href="#aw"/><use transform="matrix(0.01193576388888889,0,0,0.01193576388888889,53.030598958333336,0)" xlink:href="#am"/><use transform="matrix(0.01193576388888889,0,0,0.01193576388888889,67.28190104166667,0)" xlink:href="#ax"/><use transform="matrix(0.01193576388888889,0,0,0.01193576388888889,80.18446180555556,0)" xlink:href="#ax"/></g><path fill="#3a414a" d="M65 0l393-574-370-544h210c88 136 192 297 267 435 67-142 176-302 264-435h206L661-564 1053 0H844c-94-144-206-310-287-458C484-308 366-142 273 0H65" id="ay"/><path fill="#3a414a" d="M692-1560L212 224H46l480-1784h166" id="az"/><path fill="#3a414a" d="M158 0v-1490h180v865h22l478-493h223L593-638 1096 0H865L456-523 338-412V0H158" id="aA"/><g id="f"><use transform="matrix(0.01193576388888889,0,0,0.01193576388888889,0,0)" xlink:href="#am"/><use transform="matrix(0.01193576388888889,0,0,0.01193576388888889,13.702256944444446,0)" xlink:href="#ay"/><use transform="matrix(0.01193576388888889,0,0,0.01193576388888889,27.046440972222218,0)" xlink:href="#ak"/><use transform="matrix(0.01193576388888889,0,0,0.01193576388888889,32.966579861111114,0)" xlink:href="#ar"/><use transform="matrix(0.01193576388888889,0,0,0.01193576388888889,40.72482638888889,0)" xlink:href="#am"/><use transform="matrix(0.01193576388888889,0,0,0.01193576388888889,54.97612847222223,0)" xlink:href="#an"/><use transform="matrix(0.01193576388888889,0,0,0.01193576388888889,69.9435763888889,0)" xlink:href="#az"/><use transform="matrix(0.01193576388888889,0,0,0.01193576388888889,78.7521701388889,0)" xlink:href="#au"/><use transform="matrix(0.01193576388888889,0,0,0.01193576388888889,92.47829861111113,0)" xlink:href="#ao"/><use transform="matrix(0.01193576388888889,0,0,0.01193576388888889,107.44574652777781,0)" xlink:href="#aq"/><use transform="matrix(0.01193576388888889,0,0,0.01193576388888889,122.10286458333337,0)" xlink:href="#at"/><use transform="matrix(0.01193576388888889,0,0,0.01193576388888889,131.68728298611114,0)" xlink:href="#ar"/><use transform="matrix(0.01193576388888889,0,0,0.01193576388888889,139.4455295138889,0)" xlink:href="#am"/><use transform="matrix(0.01193576388888889,0,0,0.01193576388888889,153.69683159722226,0)" xlink:href="#an"/><use transform="matrix(0.01193576388888889,0,0,0.01193576388888889,168.6642795138889,0)" xlink:href="#az"/><use transform="matrix(0.01193576388888889,0,0,0.01193576388888889,177.4728732638889,0)" xlink:href="#aA"/><use transform="matrix(0.01193576388888889,0,0,0.01193576388888889,190.88867187500003,0)" xlink:href="#ak"/><use transform="matrix(0.01193576388888889,0,0,0.01193576388888889,196.8088107638889,0)" xlink:href="#al"/><use transform="matrix(0.01193576388888889,0,0,0.01193576388888889,202.7289496527778,0)" xlink:href="#al"/><use transform="matrix(0.01193576388888889,0,0,0.01193576388888889,208.64908854166669,0)" xlink:href="#am"/><use transform="matrix(0.01193576388888889,0,0,0.01193576388888889,222.90039062500003,0)" xlink:href="#an"/></g><path d="M180 0v-1490h510c348 0 508 194 508 460 0 198-88 351-276 417L1256 0h-220L726-579c-117 2-238 0-356 1V0H180zm190-747h312c235 0 327-108 327-283 0-177-92-293-329-293H370v576" id="aB"/><path d="M628 24c-324 0-524-230-524-574 0-343 198-582 503-582 237 0 487 146 487 559v75H286c9 234 145 362 343 362 132 0 231-58 273-172l174 48C1024-91 857 24 628 24zM287-650h624c-17-190-120-322-304-322-192 0-309 151-320 322" id="aC"/><path d="M471 26C259 26 90-98 90-318c0-256 228-303 435-329 202-27 287-16 287-108 0-139-79-219-234-219-161 0-248 86-283 164l-173-57c86-203 278-265 451-265 150 0 419 46 419 395V0H815v-152h-12C765-73 660 26 471 26zm31-159c199 0 310-134 310-271v-155c-30 35-226 55-295 64-131 17-246 59-246 186 0 116 97 176 231 176" id="aD"/><path d="M577 24c-279 0-473-224-473-580 0-354 195-576 474-576 218 0 287 134 324 193h14v-551h180V0H922v-173h-20C865-111 790 24 577 24zm27-161c203 0 314-172 314-421 0-247-108-413-314-413-212 0-317 181-317 413 0 235 108 421 317 421" id="aE"/><path d="M140 405l46-156c120 36 205 19 263-150l32-93L54-1118h197c107 313 237 620 324 950 87-331 219-637 326-950h196L606 167c-68 178-176 259-334 259-64 0-113-12-132-21" id="aF"/><g id="h"><use transform="matrix(0.010091145833333334,0,0,0.010091145833333334,0,0)" xlink:href="#aB"/><use transform="matrix(0.010091145833333334,0,0,0.010091145833333334,12.997395833333334,0)" xlink:href="#aC"/><use transform="matrix(0.010091145833333334,0,0,0.010091145833333334,25.248046875,0)" xlink:href="#aD"/><use transform="matrix(0.010091145833333334,0,0,0.010091145833333334,36.852864583333336,0)" xlink:href="#aE"/><use transform="matrix(0.010091145833333334,0,0,0.010091145833333334,49.60807291666667,0)" xlink:href="#aF"/></g><path d="M537 14c-226 0-379-139-379-422v-710h180v695c0 172 97 275 253 275 160 0 281-109 281-300v-670h181V0H879v-209C806-46 684 14 537 14" id="aG"/><path d="M338-670V0H158v-1118h173l1 207c72-158 192-221 342-221 226 0 378 139 378 422V0H872v-695c0-172-96-275-252-275-161 0-282 109-282 300" id="aH"/><path d="M158 0v-1118h180V0H158zm91-1301c-68 0-125-53-125-119s57-119 125-119c69 0 126 53 126 119s-57 119-126 119" id="aI"/><path d="M611 442c-248 0-391-105-460-228l146-94c47 65 117 165 314 165 178 0 307-82 307-266v-224h-17C863-141 792-18 576-18c-268 0-472-195-472-546 0-346 197-568 476-568 216 0 288 133 326 193h17v-179h175V29c0 289-215 413-487 413zm-5-620c203 0 314-146 314-390 0-237-108-403-314-403-213 0-319 180-319 403 0 230 109 390 319 390" id="aJ"/><g id="i"><use transform="matrix(0.010091145833333334,0,0,0.010091145833333334,0,0)" xlink:href="#aB"/><use transform="matrix(0.010091145833333334,0,0,0.010091145833333334,13.300130208333334,0)" xlink:href="#aG"/><use transform="matrix(0.010091145833333334,0,0,0.010091145833333334,25.5205078125,0)" xlink:href="#aH"/><use transform="matrix(0.010091145833333334,0,0,0.010091145833333334,37.730794270833336,0)" xlink:href="#aH"/><use transform="matrix(0.010091145833333334,0,0,0.010091145833333334,49.94108072916667,0)" xlink:href="#aI"/><use transform="matrix(0.010091145833333334,0,0,0.010091145833333334,54.9462890625,0)" xlink:href="#aH"/><use transform="matrix(0.010091145833333334,0,0,0.010091145833333334,67.15657552083334,0)" xlink:href="#aJ"/></g><path d="M98-1322v-168h1126v168H757V0H567v-1322H98" id="aK"/><path d="M158 0v-1118h174v172h12c41-113 157-188 290-188 26 0 70 2 91 3v181c-11-2-60-10-108-10-161 0-279 109-279 260V0H158" id="aL"/><path d="M158 0v-1118h175l1 205c55-151 181-225 313-225 147 0 245 90 285 228 53-141 190-228 352-228 194 0 352 125 352 384V0h-181v-749c0-161-105-225-225-225-151 0-243 103-243 244V0H807v-767c0-124-93-207-219-207-131 0-250 92-250 270V0H158" id="aM"/><path d="M598-1118v154H368v674c0 100 37 144 132 144 23 0 62-6 92-12L629-6c-37 13-88 20-134 20-193 0-307-107-307-290v-688H20v-154h168v-266h180v266h230" id="aN"/><g id="j"><use transform="matrix(0.010091145833333334,0,0,0.010091145833333334,0,0)" xlink:href="#aK"/><use transform="matrix(0.010091145833333334,0,0,0.010091145833333334,11.725911458333334,0)" xlink:href="#aC"/><use transform="matrix(0.010091145833333334,0,0,0.010091145833333334,23.774739583333336,0)" xlink:href="#aL"/><use transform="matrix(0.010091145833333334,0,0,0.010091145833333334,31.877929687500004,0)" xlink:href="#aM"/><use transform="matrix(0.010091145833333334,0,0,0.010091145833333334,49.9814453125,0)" xlink:href="#aI"/><use transform="matrix(0.010091145833333334,0,0,0.010091145833333334,54.986653645833336,0)" xlink:href="#aH"/><use transform="matrix(0.010091145833333334,0,0,0.010091145833333334,67.19694010416667,0)" xlink:href="#aD"/><use transform="matrix(0.010091145833333334,0,0,0.010091145833333334,78.8017578125,0)" xlink:href="#aN"/><use transform="matrix(0.010091145833333334,0,0,0.010091145833333334,85.36100260416666,0)" xlink:href="#aC"/><use transform="matrix(0.010091145833333334,0,0,0.010091145833333334,97.40983072916666,0)" xlink:href="#aE"/></g><path d="M458 0L52-1490h194c108 439 233 855 324 1313 92-459 221-873 331-1313h216c110 438 234 854 330 1307 92-455 216-869 323-1307h196L1558 0h-221l-256-944c-26-95-50-200-73-331-22 122-44 223-73 331L680 0H458" id="aO"/><g id="k"><use transform="matrix(0.010091145833333334,0,0,0.010091145833333334,0,0)" xlink:href="#aO"/><use transform="matrix(0.010091145833333334,0,0,0.010091145833333334,19.314453125,0)" xlink:href="#aD"/><use transform="matrix(0.010091145833333334,0,0,0.010091145833333334,30.919270833333336,0)" xlink:href="#aI"/><use transform="matrix(0.010091145833333334,0,0,0.010091145833333334,35.92447916666667,0)" xlink:href="#aN"/><use transform="matrix(0.010091145833333334,0,0,0.010091145833333334,42.685546875000014,0)" xlink:href="#aI"/><use transform="matrix(0.010091145833333334,0,0,0.010091145833333334,47.69075520833334,0)" xlink:href="#aH"/><use transform="matrix(0.010091145833333334,0,0,0.010091145833333334,59.90104166666668,0)" xlink:href="#aJ"/></g><path d="M180 0v-1490h901v168H370v510h643v168H370V0H180" id="aP"/><path d="M613 24c-304 0-509-231-509-576 0-350 205-580 509-580 305 0 511 230 511 580 0 345-206 576-511 576zm0-161c226 0 329-195 329-415 0-222-103-419-329-419-223 0-326 196-326 419 0 220 103 415 326 415" id="aQ"/><g id="l"><use transform="matrix(0.010091145833333334,0,0,0.010091145833333334,0,0)" xlink:href="#aP"/><use transform="matrix(0.010091145833333334,0,0,0.010091145833333334,11.3828125,0)" xlink:href="#aQ"/><use transform="matrix(0.010091145833333334,0,0,0.010091145833333334,23.774739583333336,0)" xlink:href="#aL"/></g><path d="M545 20c-263 0-445-160-445-446v-80h190v80c0 182 102 279 255 279 152 0 254-97 254-279v-1064h190v1064c0 286-181 446-444 446" id="aR"/><g id="m"><use transform="matrix(0.010091145833333334,0,0,0.010091145833333334,0,0)" xlink:href="#aR"/><use transform="matrix(0.010091145833333334,0,0,0.010091145833333334,11.796549479166668,0)" xlink:href="#aQ"/><use transform="matrix(0.010091145833333334,0,0,0.010091145833333334,24.1884765625,0)" xlink:href="#aI"/><use transform="matrix(0.010091145833333334,0,0,0.010091145833333334,29.193684895833336,0)" xlink:href="#aH"/></g><path d="M657 26c-323 0-524-166-541-416h195c15 169 171 246 346 246 202 0 356-106 356-265 5-203-294-238-475-293-239-73-380-191-380-389 0-252 224-419 512-419 294 0 499 171 508 396H992c-17-145-151-228-328-228-193 0-321 102-321 242 0 156 175 211 284 241l149 41c160 44 422 134 422 412 0 244-197 432-541 432" id="aS"/><path d="M338-1490V0H158v-1490h180" id="aT"/><path d="M158 418v-1536h174v179h20c37-59 106-193 324-193 279 0 474 222 474 576 0 356-194 580-473 580-213 0-288-135-325-197h-14v591H158zm492-555c209 0 317-186 317-421 0-232-105-413-317-413-206 0-314 166-314 413 0 249 111 421 314 421" id="aU"/><g id="n"><use transform="matrix(0.010091145833333334,0,0,0.010091145833333334,0,0)" xlink:href="#aS"/><use transform="matrix(0.010091145833333334,0,0,0.010091145833333334,13.259765625,0)" xlink:href="#aT"/><use transform="matrix(0.010091145833333334,0,0,0.010091145833333334,18.264973958333336,0)" xlink:href="#aC"/><use transform="matrix(0.010091145833333334,0,0,0.010091145833333334,30.313802083333336,0)" xlink:href="#aC"/><use transform="matrix(0.010091145833333334,0,0,0.010091145833333334,42.362630208333336,0)" xlink:href="#aU"/><use transform="matrix(0.010091145833333334,0,0,0.010091145833333334,55.016927083333336,0)" xlink:href="#aI"/><use transform="matrix(0.010091145833333334,0,0,0.010091145833333334,60.02213541666667,0)" xlink:href="#aH"/><use transform="matrix(0.010091145833333334,0,0,0.010091145833333334,72.232421875,0)" xlink:href="#aJ"/></g><path d="M180 0v-1490h528c311 0 458 177 458 395 0 191-114 278-244 313v14c139 9 302 137 302 371 0 225-148 397-499 397H180zm190-168h350c232 0 321-102 321-231 0-149-120-277-311-277H370v508zm0-668h328c160 0 286-101 286-255 0-129-87-231-280-231H370v486" id="aV"/><path d="M613 24c-304 0-509-231-509-576 0-350 205-580 509-580 216 0 392 114 453 309l-173 49c-33-115-133-197-280-197-223 0-326 196-326 419 0 220 103 415 326 415 150 0 252-85 285-206l172 49C1010-95 832 24 613 24" id="aW"/><path d="M158 0v-1490h180v865h22l478-493h223L593-638 1096 0H865L456-523 338-412V0H158" id="aX"/><g id="o"><use transform="matrix(0.010091145833333334,0,0,0.010091145833333334,0,0)" xlink:href="#aV"/><use transform="matrix(0.010091145833333334,0,0,0.010091145833333334,13.522135416666668,0)" xlink:href="#aT"/><use transform="matrix(0.010091145833333334,0,0,0.010091145833333334,18.52734375,0)" xlink:href="#aQ"/><use transform="matrix(0.010091145833333334,0,0,0.010091145833333334,30.919270833333336,0)" xlink:href="#aW"/><use transform="matrix(0.010091145833333334,0,0,0.010091145833333334,42.725911458333336,0)" xlink:href="#aX"/><use transform="matrix(0.010091145833333334,0,0,0.010091145833333334,53.60416666666667,0)" xlink:href="#aC"/><use transform="matrix(0.010091145833333334,0,0,0.010091145833333334,65.65299479166667,0)" xlink:href="#aE"/></g><path fill="#3a414a" d="M545 20c-263 0-445-160-445-446v-80h190v80c0 182 102 279 255 279 152 0 254-97 254-279v-1064h190v1064c0 286-181 446-444 446" id="aY"/><path fill="#3a414a" d="M338-670V0H158v-1118h173l1 207c72-158 192-221 342-221 226 0 378 139 378 422V0H872v-695c0-172-96-275-252-275-161 0-282 109-282 300" id="aZ"/><g id="p"><use transform="matrix(0.01193576388888889,0,0,0.01193576388888889,0,0)" xlink:href="#aY"/><use transform="matrix(0.01193576388888889,0,0,0.01193576388888889,13.952907986111112,0)" xlink:href="#aq"/><use transform="matrix(0.01193576388888889,0,0,0.01193576388888889,28.610026041666668,0)" xlink:href="#ak"/><use transform="matrix(0.01193576388888889,0,0,0.01193576388888889,34.53016493055556,0)" xlink:href="#aZ"/><use transform="matrix(0.01193576388888889,0,0,0.01193576388888889,48.972439236111114,0)" xlink:href="#am"/><use transform="matrix(0.01193576388888889,0,0,0.01193576388888889,63.22374131944445,0)" xlink:href="#an"/></g><g id="q"><use transform="matrix(0.01193576388888889,0,0,0.01193576388888889,0,0)" xlink:href="#am"/><use transform="matrix(0.01193576388888889,0,0,0.01193576388888889,13.702256944444446,0)" xlink:href="#ay"/><use transform="matrix(0.01193576388888889,0,0,0.01193576388888889,27.046440972222218,0)" xlink:href="#ak"/><use transform="matrix(0.01193576388888889,0,0,0.01193576388888889,32.966579861111114,0)" xlink:href="#ar"/><use transform="matrix(0.01193576388888889,0,0,0.01193576388888889,40.72482638888889,0)" xlink:href="#am"/><use transform="matrix(0.01193576388888889,0,0,0.01193576388888889,54.97612847222223,0)" xlink:href="#an"/><use transform="matrix(0.01193576388888889,0,0,0.01193576388888889,69.9435763888889,0)" xlink:href="#az"/><use transform="matrix(0.01193576388888889,0,0,0.01193576388888889,78.7521701388889,0)" xlink:href="#au"/><use transform="matrix(0.01193576388888889,0,0,0.01193576388888889,92.47829861111113,0)" xlink:href="#ao"/><use transform="matrix(0.01193576388888889,0,0,0.01193576388888889,107.44574652777781,0)" xlink:href="#aq"/><use transform="matrix(0.01193576388888889,0,0,0.01193576388888889,122.10286458333337,0)" xlink:href="#at"/><use transform="matrix(0.01193576388888889,0,0,0.01193576388888889,131.68728298611114,0)" xlink:href="#ar"/><use transform="matrix(0.01193576388888889,0,0,0.01193576388888889,139.4455295138889,0)" xlink:href="#am"/><use transform="matrix(0.01193576388888889,0,0,0.01193576388888889,153.69683159722226,0)" xlink:href="#an"/><use transform="matrix(0.01193576388888889,0,0,0.01193576388888889,168.6642795138889,0)" xlink:href="#az"/><use transform="matrix(0.01193576388888889,0,0,0.01193576388888889,177.4728732638889,0)" xlink:href="#aA"/><use transform="matrix(0.01193576388888889,0,0,0.01193576388888889,190.88867187500003,0)" xlink:href="#ak"/><use transform="matrix(0.01193576388888889,0,0,0.01193576388888889,196.8088107638889,0)" xlink:href="#al"/><use transform="matrix(0.01193576388888889,0,0,0.01193576388888889,202.7289496527778,0)" xlink:href="#al"/><use transform="matrix(0.01193576388888889,0,0,0.01193576388888889,208.64908854166669,0)" xlink:href="#am"/><use transform="matrix(0.01193576388888889,0,0,0.01193576388888889,222.90039062500003,0)" xlink:href="#an"/></g><path fill="#3a414a" d="M180 0v-1490h908v168H370v486h669v168H370v500h727V0H180" id="ba"/><path fill="#3a414a" d="M52 0l541-1490h220L1361 0h-200l-149-416H398L254 0H52zm404-582h497c-103-290-145-390-251-756-108 377-145 460-246 756" id="bb"/><g id="r"><use transform="matrix(0.01193576388888889,0,0,0.01193576388888889,0,0)" xlink:href="#ba"/><use transform="matrix(0.01193576388888889,0,0,0.01193576388888889,14.692925347222223,0)" xlink:href="#ay"/><use transform="matrix(0.01193576388888889,0,0,0.01193576388888889,28.037109375000004,0)" xlink:href="#ak"/><use transform="matrix(0.01193576388888889,0,0,0.01193576388888889,33.957248263888886,0)" xlink:href="#ar"/><use transform="matrix(0.01193576388888889,0,0,0.01193576388888889,41.715494791666664,0)" xlink:href="#am"/><use transform="matrix(0.01193576388888889,0,0,0.01193576388888889,55.96679687500001,0)" xlink:href="#an"/><use transform="matrix(0.01193576388888889,0,0,0.01193576388888889,70.93424479166667,0)" xlink:href="#az"/><use transform="matrix(0.01193576388888889,0,0,0.01193576388888889,79.14605034722223,0)" xlink:href="#bb"/><use transform="matrix(0.01193576388888889,0,0,0.01193576388888889,96.01128472222223,0)" xlink:href="#ao"/><use transform="matrix(0.01193576388888889,0,0,0.01193576388888889,110.9787326388889,0)" xlink:href="#aq"/><use transform="matrix(0.01193576388888889,0,0,0.01193576388888889,125.63585069444446,0)" xlink:href="#at"/><use transform="matrix(0.01193576388888889,0,0,0.01193576388888889,135.22026909722223,0)" xlink:href="#ar"/><use transform="matrix(0.01193576388888889,0,0,0.01193576388888889,142.978515625,0)" xlink:href="#am"/><use transform="matrix(0.01193576388888889,0,0,0.01193576388888889,157.22981770833334,0)" xlink:href="#an"/></g><path fill="#3a414a" d="M98-1322v-168h1126v168H757V0H567v-1322H98" id="bc"/><g id="s"><use transform="matrix(0.01193576388888889,0,0,0.01193576388888889,0,0)" xlink:href="#bc"/><use transform="matrix(0.01193576388888889,0,0,0.01193576388888889,15.779079861111112,0)" xlink:href="#as"/><use transform="matrix(0.01193576388888889,0,0,0.01193576388888889,30.233289930555557,0)" xlink:href="#at"/><use transform="matrix(0.01193576388888889,0,0,0.01193576388888889,39.02994791666667,0)" xlink:href="#am"/><use transform="matrix(0.01193576388888889,0,0,0.01193576388888889,53.51996527777778,0)" xlink:href="#au"/><use transform="matrix(0.01193576388888889,0,0,0.01193576388888889,67.24609375000001,0)" xlink:href="#an"/></g><path fill="#3a414a" d="M481 0L54-1118h197c107 314 236 620 325 951 87-331 217-637 324-951h197L670 0H481" id="bd"/><g id="t"><use transform="matrix(0.01193576388888889,0,0,0.01193576388888889,0,0)" xlink:href="#ak"/><use transform="matrix(0.01193576388888889,0,0,0.01193576388888889,5.920138888888889,0)" xlink:href="#aZ"/><use transform="matrix(0.01193576388888889,0,0,0.01193576388888889,20.00434027777778,0)" xlink:href="#bd"/><use transform="matrix(0.01193576388888889,0,0,0.01193576388888889,33.264973958333336,0)" xlink:href="#aq"/><use transform="matrix(0.01193576388888889,0,0,0.01193576388888889,47.92209201388889,0)" xlink:href="#aA"/><use transform="matrix(0.01193576388888889,0,0,0.01193576388888889,60.788845486111114,0)" xlink:href="#am"/><use transform="matrix(0.01193576388888889,0,0,0.01193576388888889,75.04014756944446,0)" xlink:href="#an"/></g><path fill="#3a414a" d="M158 418v-1536h174v179h20c37-59 106-193 324-193 279 0 474 222 474 576 0 356-194 580-473 580-213 0-288-135-325-197h-14v591H158zm492-555c209 0 317-186 317-421 0-232-105-413-317-413-206 0-314 166-314 413 0 249 111 421 314 421" id="be"/><g id="u"><use transform="matrix(0.01193576388888889,0,0,0.01193576388888889,0,0)" xlink:href="#aZ"/><use transform="matrix(0.01193576388888889,0,0,0.01193576388888889,14.442274305555557,0)" xlink:href="#au"/><use transform="matrix(0.01193576388888889,0,0,0.01193576388888889,28.16840277777778,0)" xlink:href="#aZ"/><use transform="matrix(0.01193576388888889,0,0,0.01193576388888889,42.610677083333336,0)" xlink:href="#aq"/><use transform="matrix(0.01193576388888889,0,0,0.01193576388888889,57.26779513888889,0)" xlink:href="#ax"/><use transform="matrix(0.01193576388888889,0,0,0.01193576388888889,70.17035590277779,0)" xlink:href="#al"/><use transform="matrix(0.01193576388888889,0,0,0.01193576388888889,76.09049479166667,0)" xlink:href="#am"/><use transform="matrix(0.01193576388888889,0,0,0.01193576388888889,90.341796875,0)" xlink:href="#am"/><use transform="matrix(0.01193576388888889,0,0,0.01193576388888889,104.59309895833331,0)" xlink:href="#be"/></g><path fill="#3a414a" d="M657 26c-323 0-524-166-541-416h195c15 169 171 246 346 246 202 0 356-106 356-265 5-203-294-238-475-293-239-73-380-191-380-389 0-252 224-419 512-419 294 0 499 171 508 396H992c-17-145-151-228-328-228-193 0-321 102-321 242 0 156 175 211 284 241l149 41c160 44 422 134 422 412 0 244-197 432-541 432" id="bf"/><path fill="#3a414a" d="M537 14c-226 0-379-139-379-422v-710h180v695c0 172 97 275 253 275 160 0 281-109 281-300v-670h181V0H879v-209C806-46 684 14 537 14" id="bg"/><g id="v"><use transform="matrix(0.01193576388888889,0,0,0.01193576388888889,0,0)" xlink:href="#bf"/><use transform="matrix(0.01193576388888889,0,0,0.01193576388888889,15.683593750000002,0)" xlink:href="#aw"/><use transform="matrix(0.01193576388888889,0,0,0.01193576388888889,29.648437500000004,0)" xlink:href="#as"/><use transform="matrix(0.01193576388888889,0,0,0.01193576388888889,44.10264756944445,0)" xlink:href="#am"/><use transform="matrix(0.01193576388888889,0,0,0.01193576388888889,58.353949652777786,0)" xlink:href="#an"/><use transform="matrix(0.01193576388888889,0,0,0.01193576388888889,73.32139756944446,0)" xlink:href="#bg"/><use transform="matrix(0.01193576388888889,0,0,0.01193576388888889,87.7756076388889,0)" xlink:href="#al"/><use transform="matrix(0.01193576388888889,0,0,0.01193576388888889,93.69574652777779,0)" xlink:href="#am"/><use transform="matrix(0.01193576388888889,0,0,0.01193576388888889,107.94704861111111,0)" xlink:href="#at"/></g><path fill="#3a414a" d="M409 0L70-1118h191c89 329 165 560 243 925 75-353 154-601 240-925h192c85 325 161 564 235 922 77-354 157-598 244-922h191L1267 0h-179c-86-307-176-590-250-913C763-588 675-308 588 0H409" id="bh"/><g id="w"><use transform="matrix(0.01193576388888889,0,0,0.01193576388888889,0,0)" xlink:href="#bh"/><use transform="matrix(0.01193576388888889,0,0,0.01193576388888889,19.56271701388889,0)" xlink:href="#aq"/><use transform="matrix(0.01193576388888889,0,0,0.01193576388888889,34.21983506944444,0)" xlink:href="#aA"/><use transform="matrix(0.01193576388888889,0,0,0.01193576388888889,47.08658854166667,0)" xlink:href="#am"/><use transform="matrix(0.01193576388888889,0,0,0.01193576388888889,61.33789062500001,0)" xlink:href="#aZ"/></g><g id="x"><use transform="matrix(0.01193576388888889,0,0,0.01193576388888889,0,0)" xlink:href="#bg"/><use transform="matrix(0.01193576388888889,0,0,0.01193576388888889,14.454210069444446,0)" xlink:href="#be"/></g><g id="y"><use transform="matrix(0.01193576388888889,0,0,0.01193576388888889,0,0)" xlink:href="#ar"/><use transform="matrix(0.01193576388888889,0,0,0.01193576388888889,7.996961805555556,0)" xlink:href="#as"/><use transform="matrix(0.01193576388888889,0,0,0.01193576388888889,22.451171875000004,0)" xlink:href="#am"/></g><path fill="#3a414a" d="M128 359l88-567h206L266 359H128" id="bi"/><g id="z"><use transform="matrix(0.01193576388888889,0,0,0.01193576388888889,0,0)" xlink:href="#ar"/><use transform="matrix(0.01193576388888889,0,0,0.01193576388888889,7.996961805555556,0)" xlink:href="#as"/><use transform="matrix(0.01193576388888889,0,0,0.01193576388888889,22.451171875000004,0)" xlink:href="#at"/><use transform="matrix(0.01193576388888889,0,0,0.01193576388888889,31.247829861111114,0)" xlink:href="#am"/><use transform="matrix(0.01193576388888889,0,0,0.01193576388888889,45.73784722222223,0)" xlink:href="#au"/><use transform="matrix(0.01193576388888889,0,0,0.01193576388888889,59.46397569444445,0)" xlink:href="#an"/><use transform="matrix(0.01193576388888889,0,0,0.01193576388888889,74.43142361111111,0)" xlink:href="#bi"/></g><g id="B"><use transform="matrix(0.01193576388888889,0,0,0.01193576388888889,0,0)" xlink:href="#ao"/><use transform="matrix(0.01193576388888889,0,0,0.01193576388888889,14.967447916666668,0)" xlink:href="#bg"/><use transform="matrix(0.01193576388888889,0,0,0.01193576388888889,29.421657986111114,0)" xlink:href="#ar"/></g><g id="C"><use transform="matrix(0.01193576388888889,0,0,0.01193576388888889,0,0)" xlink:href="#an"/><use transform="matrix(0.01193576388888889,0,0,0.01193576388888889,14.967447916666668,0)" xlink:href="#am"/><use transform="matrix(0.01193576388888889,0,0,0.01193576388888889,29.218750000000004,0)" xlink:href="#aw"/><use transform="matrix(0.01193576388888889,0,0,0.01193576388888889,43.18359375,0)" xlink:href="#ak"/><use transform="matrix(0.01193576388888889,0,0,0.01193576388888889,49.10373263888888,0)" xlink:href="#an"/><use transform="matrix(0.01193576388888889,0,0,0.01193576388888889,64.07118055555556,0)" xlink:href="#am"/><use transform="matrix(0.01193576388888889,0,0,0.01193576388888889,78.32248263888889,0)" xlink:href="#an"/></g><g id="D"><use transform="matrix(0.01193576388888889,0,0,0.01193576388888889,0,0)" xlink:href="#ar"/><use transform="matrix(0.01193576388888889,0,0,0.01193576388888889,7.758246527777779,0)" xlink:href="#aq"/></g><g id="E"><use transform="matrix(0.01193576388888889,0,0,0.01193576388888889,0,0)" xlink:href="#be"/><use transform="matrix(0.01193576388888889,0,0,0.01193576388888889,14.967447916666668,0)" xlink:href="#bg"/><use transform="matrix(0.01193576388888889,0,0,0.01193576388888889,29.421657986111114,0)" xlink:href="#ar"/></g><g id="F"><use transform="matrix(0.01193576388888889,0,0,0.01193576388888889,0,0)" xlink:href="#ak"/><use transform="matrix(0.01193576388888889,0,0,0.01193576388888889,5.920138888888889,0)" xlink:href="#ar"/></g><g id="G"><use transform="matrix(0.01193576388888889,0,0,0.01193576388888889,0,0)" xlink:href="#at"/><use transform="matrix(0.01193576388888889,0,0,0.01193576388888889,8.796657986111112,0)" xlink:href="#am"/><use transform="matrix(0.01193576388888889,0,0,0.01193576388888889,23.286675347222225,0)" xlink:href="#au"/><use transform="matrix(0.01193576388888889,0,0,0.01193576388888889,37.01280381944445,0)" xlink:href="#an"/><use transform="matrix(0.01193576388888889,0,0,0.01193576388888889,52.09960937500001,0)" xlink:href="#ap"/></g><path fill="#3a414a" d="M1096 418H916v-591h-14C865-111 790 24 577 24c-279 0-473-224-473-580 0-354 195-576 474-576 218 0 287 134 324 193h20v-179h174V418zM604-137c203 0 314-172 314-421 0-247-108-413-314-413-212 0-317 181-317 413 0 235 108 421 317 421" id="bj"/><g id="H"><use transform="matrix(0.01193576388888889,0,0,0.01193576388888889,0,0)" xlink:href="#bj"/><use transform="matrix(0.01193576388888889,0,0,0.01193576388888889,14.967447916666668,0)" xlink:href="#bg"/><use transform="matrix(0.01193576388888889,0,0,0.01193576388888889,29.421657986111114,0)" xlink:href="#am"/><use transform="matrix(0.01193576388888889,0,0,0.01193576388888889,43.67296006944445,0)" xlink:href="#bg"/><use transform="matrix(0.01193576388888889,0,0,0.01193576388888889,58.12717013888891,0)" xlink:href="#am"/><use transform="matrix(0.01193576388888889,0,0,0.01193576388888889,72.37847222222223,0)" xlink:href="#ax"/></g><g id="I"><use transform="matrix(0.01193576388888889,0,0,0.01193576388888889,0,0)" xlink:href="#au"/><use transform="matrix(0.01193576388888889,0,0,0.01193576388888889,13.726128472222223,0)" xlink:href="#aZ"/><use transform="matrix(0.01193576388888889,0,0,0.01193576388888889,28.16840277777778,0)" xlink:href="#an"/></g><path fill="#3a414a" d="M158 0v-1118h175l1 205c55-151 181-225 313-225 147 0 245 90 285 228 53-141 190-228 352-228 194 0 352 125 352 384V0h-181v-749c0-161-105-225-225-225-151 0-243 103-243 244V0H807v-767c0-124-93-207-219-207-131 0-250 92-250 270V0H158" id="bk"/><g id="J"><use transform="matrix(0.01193576388888889,0,0,0.01193576388888889,0,0)" xlink:href="#be"/><use transform="matrix(0.01193576388888889,0,0,0.01193576388888889,14.967447916666668,0)" xlink:href="#at"/><use transform="matrix(0.01193576388888889,0,0,0.01193576388888889,23.76410590277778,0)" xlink:href="#am"/><use transform="matrix(0.01193576388888889,0,0,0.01193576388888889,38.015407986111114,0)" xlink:href="#am"/><use transform="matrix(0.01193576388888889,0,0,0.01193576388888889,52.26671006944445,0)" xlink:href="#bk"/><use transform="matrix(0.01193576388888889,0,0,0.01193576388888889,73.67947048611111,0)" xlink:href="#be"/><use transform="matrix(0.01193576388888889,0,0,0.01193576388888889,88.64691840277779,0)" xlink:href="#ar"/></g><g id="K"><use transform="matrix(0.01193576388888889,0,0,0.01193576388888889,0,0)" xlink:href="#aw"/><use transform="matrix(0.01193576388888889,0,0,0.01193576388888889,13.964843750000002,0)" xlink:href="#bg"/><use transform="matrix(0.01193576388888889,0,0,0.01193576388888889,28.419053819444454,0)" xlink:href="#at"/><use transform="matrix(0.01193576388888889,0,0,0.01193576388888889,38.00347222222223,0)" xlink:href="#at"/><use transform="matrix(0.01193576388888889,0,0,0.01193576388888889,46.80013020833334,0)" xlink:href="#am"/><use transform="matrix(0.01193576388888889,0,0,0.01193576388888889,61.051432291666686,0)" xlink:href="#aZ"/><use transform="matrix(0.01193576388888889,0,0,0.01193576388888889,75.49370659722223,0)" xlink:href="#ar"/></g><g id="L"><use transform="matrix(0.01193576388888889,0,0,0.01193576388888889,0,0)" xlink:href="#ar"/><use transform="matrix(0.01193576388888889,0,0,0.01193576388888889,7.996961805555556,0)" xlink:href="#as"/><use transform="matrix(0.01193576388888889,0,0,0.01193576388888889,22.451171875000004,0)" xlink:href="#at"/><use transform="matrix(0.01193576388888889,0,0,0.01193576388888889,31.247829861111114,0)" xlink:href="#am"/><use transform="matrix(0.01193576388888889,0,0,0.01193576388888889,45.73784722222223,0)" xlink:href="#au"/><use transform="matrix(0.01193576388888889,0,0,0.01193576388888889,59.46397569444445,0)" xlink:href="#an"/></g><g id="M"><use transform="matrix(0.01193576388888889,0,0,0.01193576388888889,0,0)" xlink:href="#ap"/><use transform="matrix(0.01193576388888889,0,0,0.01193576388888889,13.738064236111112,0)" xlink:href="#ak"/><use transform="matrix(0.01193576388888889,0,0,0.01193576388888889,19.658203125,0)" xlink:href="#am"/><use transform="matrix(0.01193576388888889,0,0,0.01193576388888889,33.909505208333336,0)" xlink:href="#al"/><use transform="matrix(0.01193576388888889,0,0,0.01193576388888889,39.82964409722223,0)" xlink:href="#an"/><use transform="matrix(0.01193576388888889,0,0,0.01193576388888889,54.79709201388891,0)" xlink:href="#am"/><use transform="matrix(0.01193576388888889,0,0,0.01193576388888889,69.04839409722223,0)" xlink:href="#an"/></g><g id="N"><use transform="matrix(0.01193576388888889,0,0,0.01193576388888889,0,0)" xlink:href="#be"/><use transform="matrix(0.01193576388888889,0,0,0.01193576388888889,14.967447916666668,0)" xlink:href="#at"/><use transform="matrix(0.01193576388888889,0,0,0.01193576388888889,23.76410590277778,0)" xlink:href="#am"/><use transform="matrix(0.01193576388888889,0,0,0.01193576388888889,38.015407986111114,0)" xlink:href="#am"/><use transform="matrix(0.01193576388888889,0,0,0.01193576388888889,52.26671006944445,0)" xlink:href="#bk"/><use transform="matrix(0.01193576388888889,0,0,0.01193576388888889,73.67947048611111,0)" xlink:href="#be"/><use transform="matrix(0.01193576388888889,0,0,0.01193576388888889,88.64691840277779,0)" xlink:href="#ar"/><use transform="matrix(0.01193576388888889,0,0,0.01193576388888889,96.40516493055557,0)" xlink:href="#am"/><use transform="matrix(0.01193576388888889,0,0,0.01193576388888889,110.6564670138889,0)" xlink:href="#an"/></g><g id="O"><use transform="matrix(0.01193576388888889,0,0,0.01193576388888889,0,0)" xlink:href="#ar"/><use transform="matrix(0.01193576388888889,0,0,0.01193576388888889,7.996961805555556,0)" xlink:href="#ak"/><use transform="matrix(0.01193576388888889,0,0,0.01193576388888889,13.917100694444446,0)" xlink:href="#bk"/><use transform="matrix(0.01193576388888889,0,0,0.01193576388888889,35.329861111111114,0)" xlink:href="#am"/><use transform="matrix(0.01193576388888889,0,0,0.01193576388888889,49.58116319444445,0)" xlink:href="#at"/></g><g id="P"><use transform="matrix(0.01193576388888889,0,0,0.01193576388888889,0,0)" xlink:href="#as"/><use transform="matrix(0.01193576388888889,0,0,0.01193576388888889,14.454210069444446,0)" xlink:href="#au"/><use transform="matrix(0.01193576388888889,0,0,0.01193576388888889,28.180338541666668,0)" xlink:href="#at"/><use transform="matrix(0.01193576388888889,0,0,0.01193576388888889,36.976996527777786,0)" xlink:href="#an"/><use transform="matrix(0.01193576388888889,0,0,0.01193576388888889,51.94444444444446,0)" xlink:href="#bh"/><use transform="matrix(0.01193576388888889,0,0,0.01193576388888889,71.94878472222223,0)" xlink:href="#au"/><use transform="matrix(0.01193576388888889,0,0,0.01193576388888889,85.67491319444446,0)" xlink:href="#at"/><use transform="matrix(0.01193576388888889,0,0,0.01193576388888889,94.47157118055556,0)" xlink:href="#am"/></g><g id="Q"><use transform="matrix(0.01193576388888889,0,0,0.01193576388888889,0,0)" xlink:href="#am"/><use transform="matrix(0.01193576388888889,0,0,0.01193576388888889,13.773871527777779,0)" xlink:href="#bd"/><use transform="matrix(0.01193576388888889,0,0,0.01193576388888889,27.034505208333336,0)" xlink:href="#am"/><use transform="matrix(0.01193576388888889,0,0,0.01193576388888889,41.28580729166667,0)" xlink:href="#aZ"/><use transform="matrix(0.01193576388888889,0,0,0.01193576388888889,55.72808159722223,0)" xlink:href="#ar"/></g><g id="R"><use transform="matrix(0.01193576388888889,0,0,0.01193576388888889,0,0)" xlink:href="#av"/><use transform="matrix(0.01193576388888889,0,0,0.01193576388888889,15.611979166666668,0)" xlink:href="#ak"/><use transform="matrix(0.01193576388888889,0,0,0.01193576388888889,21.532118055555557,0)" xlink:href="#aw"/><use transform="matrix(0.01193576388888889,0,0,0.01193576388888889,35.49696180555556,0)" xlink:href="#aA"/><use transform="matrix(0.01193576388888889,0,0,0.01193576388888889,48.363715277777786,0)" xlink:href="#am"/><use transform="matrix(0.01193576388888889,0,0,0.01193576388888889,62.615017361111114,0)" xlink:href="#an"/></g><g id="S"><use transform="matrix(0.01193576388888889,0,0,0.01193576388888889,0,0)" xlink:href="#ax"/><use transform="matrix(0.01193576388888889,0,0,0.01193576388888889,12.90256076388889,0)" xlink:href="#aw"/><use transform="matrix(0.01193576388888889,0,0,0.01193576388888889,26.86740451388889,0)" xlink:href="#as"/><use transform="matrix(0.01193576388888889,0,0,0.01193576388888889,41.32161458333334,0)" xlink:href="#am"/><use transform="matrix(0.01193576388888889,0,0,0.01193576388888889,55.57291666666668,0)" xlink:href="#an"/><use transform="matrix(0.01193576388888889,0,0,0.01193576388888889,70.54036458333334,0)" xlink:href="#bg"/><use transform="matrix(0.01193576388888889,0,0,0.01193576388888889,84.99457465277779,0)" xlink:href="#al"/><use transform="matrix(0.01193576388888889,0,0,0.01193576388888889,90.91471354166667,0)" xlink:href="#am"/><use transform="matrix(0.01193576388888889,0,0,0.01193576388888889,105.16601562500001,0)" xlink:href="#at"/></g><g id="T"><use transform="matrix(0.01193576388888889,0,0,0.01193576388888889,0,0)" xlink:href="#au"/><use transform="matrix(0.01193576388888889,0,0,0.01193576388888889,13.726128472222223,0)" xlink:href="#ax"/></g><g id="U"><use transform="matrix(0.01193576388888889,0,0,0.01193576388888889,0,0)" xlink:href="#aZ"/><use transform="matrix(0.01193576388888889,0,0,0.01193576388888889,14.442274305555557,0)" xlink:href="#am"/><use transform="matrix(0.01193576388888889,0,0,0.01193576388888889,28.144531250000004,0)" xlink:href="#ay"/><use transform="matrix(0.01193576388888889,0,0,0.01193576388888889,41.966145833333336,0)" xlink:href="#ar"/></g><g id="V"><use transform="matrix(0.01193576388888889,0,0,0.01193576388888889,0,0)" xlink:href="#ar"/><use transform="matrix(0.01193576388888889,0,0,0.01193576388888889,7.996961805555556,0)" xlink:href="#as"/><use transform="matrix(0.01193576388888889,0,0,0.01193576388888889,22.451171875000004,0)" xlink:href="#at"/><use transform="matrix(0.01193576388888889,0,0,0.01193576388888889,31.247829861111114,0)" xlink:href="#am"/><use transform="matrix(0.01193576388888889,0,0,0.01193576388888889,45.73784722222223,0)" xlink:href="#au"/><use transform="matrix(0.01193576388888889,0,0,0.01193576388888889,59.46397569444445,0)" xlink:href="#an"/></g><g id="W"><use transform="matrix(0.01193576388888889,0,0,0.01193576388888889,0,0)" xlink:href="#at"/><use transform="matrix(0.01193576388888889,0,0,0.01193576388888889,9.202473958333334,0)" xlink:href="#bg"/><use transform="matrix(0.01193576388888889,0,0,0.01193576388888889,23.65668402777778,0)" xlink:href="#aZ"/></g><g id="X"><use transform="matrix(0.01193576388888889,0,0,0.01193576388888889,0,0)" xlink:href="#ar"/><use transform="matrix(0.01193576388888889,0,0,0.01193576388888889,7.996961805555556,0)" xlink:href="#as"/><use transform="matrix(0.01193576388888889,0,0,0.01193576388888889,22.451171875000004,0)" xlink:href="#at"/><use transform="matrix(0.01193576388888889,0,0,0.01193576388888889,31.247829861111114,0)" xlink:href="#am"/><use transform="matrix(0.01193576388888889,0,0,0.01193576388888889,45.73784722222223,0)" xlink:href="#au"/><use transform="matrix(0.01193576388888889,0,0,0.01193576388888889,59.46397569444445,0)" xlink:href="#an"/><use transform="matrix(0.01193576388888889,0,0,0.01193576388888889,74.43142361111111,0)" xlink:href="#bi"/></g><g id="Y"><use transform="matrix(0.01193576388888889,0,0,0.01193576388888889,0,0)" xlink:href="#au"/><use transform="matrix(0.01193576388888889,0,0,0.01193576388888889,13.726128472222223,0)" xlink:href="#aZ"/><use transform="matrix(0.01193576388888889,0,0,0.01193576388888889,28.16840277777778,0)" xlink:href="#an"/></g><g id="Z"><use transform="matrix(0.01193576388888889,0,0,0.01193576388888889,0,0)" xlink:href="#aw"/><use transform="matrix(0.01193576388888889,0,0,0.01193576388888889,13.964843750000002,0)" xlink:href="#bg"/><use transform="matrix(0.01193576388888889,0,0,0.01193576388888889,28.419053819444454,0)" xlink:href="#at"/><use transform="matrix(0.01193576388888889,0,0,0.01193576388888889,38.00347222222223,0)" xlink:href="#at"/><use transform="matrix(0.01193576388888889,0,0,0.01193576388888889,46.80013020833334,0)" xlink:href="#am"/><use transform="matrix(0.01193576388888889,0,0,0.01193576388888889,61.051432291666686,0)" xlink:href="#aZ"/><use transform="matrix(0.01193576388888889,0,0,0.01193576388888889,75.49370659722223,0)" xlink:href="#ar"/></g><g id="aa"><use transform="matrix(0.01193576388888889,0,0,0.01193576388888889,0,0)" xlink:href="#bh"/><use transform="matrix(0.01193576388888889,0,0,0.01193576388888889,20.00434027777778,0)" xlink:href="#au"/><use transform="matrix(0.01193576388888889,0,0,0.01193576388888889,33.73046875,0)" xlink:href="#ak"/><use transform="matrix(0.01193576388888889,0,0,0.01193576388888889,39.650607638888886,0)" xlink:href="#ar"/><use transform="matrix(0.01193576388888889,0,0,0.01193576388888889,47.408854166666664,0)" xlink:href="#am"/><use transform="matrix(0.01193576388888889,0,0,0.01193576388888889,61.66015625000001,0)" xlink:href="#an"/></g><g id="ab"><use transform="matrix(0.01193576388888889,0,0,0.01193576388888889,0,0)" xlink:href="#aq"/><use transform="matrix(0.01193576388888889,0,0,0.01193576388888889,14.657118055555557,0)" xlink:href="#aZ"/></g><g id="ac"><use transform="matrix(0.01193576388888889,0,0,0.01193576388888889,0,0)" xlink:href="#ax"/><use transform="matrix(0.01193576388888889,0,0,0.01193576388888889,12.90256076388889,0)" xlink:href="#aq"/><use transform="matrix(0.01193576388888889,0,0,0.01193576388888889,27.559678819444446,0)" xlink:href="#bk"/><use transform="matrix(0.01193576388888889,0,0,0.01193576388888889,48.972439236111114,0)" xlink:href="#am"/></g><path fill="#3a414a" d="M458 0L52-1490h194c108 439 233 855 324 1313 92-459 221-873 331-1313h216c110 438 234 854 330 1307 92-455 216-869 323-1307h196L1558 0h-221l-256-944c-26-95-50-200-73-331-22 122-44 223-73 331L680 0H458" id="bl"/><g id="ad"><use transform="matrix(0.01193576388888889,0,0,0.01193576388888889,0,0)" xlink:href="#bl"/><use transform="matrix(0.01193576388888889,0,0,0.01193576388888889,22.845052083333336,0)" xlink:href="#au"/><use transform="matrix(0.01193576388888889,0,0,0.01193576388888889,36.57118055555556,0)" xlink:href="#ak"/><use transform="matrix(0.01193576388888889,0,0,0.01193576388888889,42.49131944444444,0)" xlink:href="#ar"/></g><path fill="#3a414a" d="M784 20c-382 0-662-292-662-764 0-473 280-766 662-766s660 293 660 766c0 282-99 499-260 629l192 255h-198L1049-33C969 2 880 20 784 20zm-62-486h198l156 205c112-98 183-261 183-483 0-383-209-590-475-590-268 0-477 208-477 590 0 380 209 588 477 588 54 0 106-9 154-25" id="bm"/><g id="ae"><use transform="matrix(0.01193576388888889,0,0,0.01193576388888889,0,0)" xlink:href="#bm"/><use transform="matrix(0.01193576388888889,0,0,0.01193576388888889,18.69140625,0)" xlink:href="#bg"/><use transform="matrix(0.01193576388888889,0,0,0.01193576388888889,33.14561631944444,0)" xlink:href="#am"/><use transform="matrix(0.01193576388888889,0,0,0.01193576388888889,47.39691840277778,0)" xlink:href="#bg"/><use transform="matrix(0.01193576388888889,0,0,0.01193576388888889,61.85112847222223,0)" xlink:href="#am"/></g><path fill="#3a414a" d="M218-607c0-325 108-727 258-974h175c-155 315-250 682-250 974 0 265 78 531 250 886H476C306-10 218-315 218-607" id="bn"/><path fill="#3a414a" d="M295 13c-75 0-135-60-135-135s60-135 135-135 135 60 135 135S370 13 295 13" id="bo"/><path fill="#3a414a" d="M611 442c-248 0-391-105-460-228l146-94c47 65 117 165 314 165 178 0 307-82 307-266v-224h-17C863-141 792-18 576-18c-268 0-472-195-472-546 0-346 197-568 476-568 216 0 288 133 326 193h17v-179h175V29c0 289-215 413-487 413zm-5-620c203 0 314-146 314-390 0-237-108-403-314-403-213 0-319 180-319 403 0 230 109 390 319 390" id="bp"/><g id="af"><use transform="matrix(0.01193576388888889,0,0,0.01193576388888889,0,0)" xlink:href="#bn"/><use transform="matrix(0.01193576388888889,0,0,0.01193576388888889,8.641493055555555,0)" xlink:href="#am"/><use transform="matrix(0.01193576388888889,0,0,0.01193576388888889,22.89279513888889,0)" xlink:href="#bo"/><use transform="matrix(0.01193576388888889,0,0,0.01193576388888889,29.934895833333336,0)" xlink:href="#bp"/><use transform="matrix(0.01193576388888889,0,0,0.01193576388888889,44.926215277777786,0)" xlink:href="#bo"/></g><path fill="#3a414a" d="M157-1118h181V80c1 225-123 350-364 338V252c126 9 184-48 183-172v-1198zm91-183c-68 0-125-53-125-119s57-119 125-119c69 0 126 53 126 119s-57 119-126 119" id="bq"/><path fill="#3a414a" d="M96 279C273-86 346-350 346-607c0-292-95-659-250-974h175c150 246 258 650 258 974 0 297-91 602-258 886H96" id="br"/><g id="ag"><use transform="matrix(0.01193576388888889,0,0,0.01193576388888889,0,0)" xlink:href="#bq"/><use transform="matrix(0.01193576388888889,0,0,0.01193576388888889,5.920138888888889,0)" xlink:href="#aq"/><use transform="matrix(0.01193576388888889,0,0,0.01193576388888889,20.577256944444446,0)" xlink:href="#ak"/><use transform="matrix(0.01193576388888889,0,0,0.01193576388888889,26.497395833333336,0)" xlink:href="#aZ"/><use transform="matrix(0.01193576388888889,0,0,0.01193576388888889,40.93967013888889,0)" xlink:href="#ak"/><use transform="matrix(0.01193576388888889,0,0,0.01193576388888889,46.859809027777786,0)" xlink:href="#aZ"/><use transform="matrix(0.01193576388888889,0,0,0.01193576388888889,61.302083333333336,0)" xlink:href="#bp"/><use transform="matrix(0.01193576388888889,0,0,0.01193576388888889,76.29340277777779,0)" xlink:href="#br"/></g><g id="ah"><use transform="matrix(0.01193576388888889,0,0,0.01193576388888889,0,0)" xlink:href="#ba"/><use transform="matrix(0.01193576388888889,0,0,0.01193576388888889,14.692925347222223,0)" xlink:href="#ay"/><use transform="matrix(0.01193576388888889,0,0,0.01193576388888889,28.037109375000004,0)" xlink:href="#ak"/><use transform="matrix(0.01193576388888889,0,0,0.01193576388888889,33.957248263888886,0)" xlink:href="#ar"/><use transform="matrix(0.01193576388888889,0,0,0.01193576388888889,41.715494791666664,0)" xlink:href="#am"/><use transform="matrix(0.01193576388888889,0,0,0.01193576388888889,55.96679687500001,0)" xlink:href="#an"/><use transform="matrix(0.01193576388888889,0,0,0.01193576388888889,70.93424479166667,0)" xlink:href="#az"/><use transform="matrix(0.01193576388888889,0,0,0.01193576388888889,79.14605034722223,0)" xlink:href="#bb"/><use transform="matrix(0.01193576388888889,0,0,0.01193576388888889,96.01128472222223,0)" xlink:href="#ao"/><use transform="matrix(0.01193576388888889,0,0,0.01193576388888889,110.9787326388889,0)" xlink:href="#aq"/><use transform="matrix(0.01193576388888889,0,0,0.01193576388888889,125.63585069444446,0)" xlink:href="#at"/><use transform="matrix(0.01193576388888889,0,0,0.01193576388888889,135.22026909722223,0)" xlink:href="#ar"/><use transform="matrix(0.01193576388888889,0,0,0.01193576388888889,142.978515625,0)" xlink:href="#am"/><use transform="matrix(0.01193576388888889,0,0,0.01193576388888889,157.22981770833334,0)" xlink:href="#an"/></g><g id="ai"><use transform="matrix(0.01193576388888889,0,0,0.01193576388888889,0,0)" xlink:href="#an"/><use transform="matrix(0.01193576388888889,0,0,0.01193576388888889,14.967447916666668,0)" xlink:href="#am"/><use transform="matrix(0.01193576388888889,0,0,0.01193576388888889,29.218750000000004,0)" xlink:href="#ar"/><use transform="matrix(0.01193576388888889,0,0,0.01193576388888889,37.33506944444444,0)" xlink:href="#au"/><use transform="matrix(0.01193576388888889,0,0,0.01193576388888889,51.06119791666666,0)" xlink:href="#aw"/><use transform="matrix(0.01193576388888889,0,0,0.01193576388888889,65.02604166666667,0)" xlink:href="#as"/><use transform="matrix(0.01193576388888889,0,0,0.01193576388888889,79.48025173611111,0)" xlink:href="#am"/><use transform="matrix(0.01193576388888889,0,0,0.01193576388888889,93.73155381944444,0)" xlink:href="#an"/></g></defs></g></svg>